<svg width="1402" height="560" viewBox="0 0 1402 560" fill="none" xmlns="http://www.w3.org/2000/svg">
    <path
        d="M948.425 166.375C977.172 165.911 1001.65 147.038 1015.43 121.806C1028.63 97.6499 1028.13 68.8809 1014.86 44.7649C1001.07 19.6909 977.038 -0.51307 948.425 0.00992964C920.51 0.52093 899.923 22.8789 886.072 47.1209C872.358 71.1239 864.756 99.5339 877.565 124.032C891.23 150.166 918.938 166.851 948.425 166.375Z"
        fill="#FFAE00" fill-opacity="0.45" class="triangle-float1" />
    <path
        d="M210.605 166.375C239.352 165.911 263.827 147.038 277.611 121.806C290.807 97.6499 290.308 68.8809 277.04 44.7649C263.246 19.6909 239.218 -0.51307 210.605 0.00992964C182.69 0.52093 162.103 22.8789 148.252 47.1209C134.538 71.1239 126.936 99.5339 139.745 124.032C153.41 150.166 181.118 166.851 210.605 166.375Z"
        fill="#FFAE00" fill-opacity="0.45" class="triangle-float1" />
    <path
        d="M271.849 298C302.874 297.92 331.607 280.992 345.721 254.92C358.756 230.841 349.549 203.552 335.828 179.816C321.299 154.684 302.13 128.879 271.849 127.13C239.009 125.233 208.531 144.333 192.697 171.549C177.418 197.812 181.133 229.502 197.28 255.299C213.129 280.618 240.687 298.08 271.849 298Z"
        fill="#FFAE00" fill-opacity="0.45" class="triangle-float2" />
    <path
        d="M1223.81 404.937C1251.08 405.578 1276.85 392.534 1291.45 369.483C1307.17 344.653 1312.77 313.007 1298.18 287.494C1283.5 261.829 1253.31 249.237 1223.81 251.199C1197.32 252.961 1177.44 273.018 1164.81 296.366C1152.88 318.406 1149.5 344.409 1161.46 366.427C1173.96 389.431 1197.63 404.322 1223.81 404.937Z"
        fill="#FFAE00" fill-opacity="0.45" class="triangle-float3" />
    <path
        d="M121.857 270.301C140.117 269.963 158.921 265.175 168.651 249.72C178.966 233.335 178.388 212.421 168.931 195.525C159.246 178.221 141.629 164.599 121.857 166.115C103.767 167.502 94.9725 186.233 85.8195 201.898C76.5355 217.788 63.3835 235.228 71.9615 251.51C80.8395 268.362 102.812 270.654 121.857 270.301Z"
        fill="#FFAE00" fill-opacity="0.45" class="triangle-float3" />
    <path
        d="M49.5886 182.275C73.5776 183.529 96.1896 168.633 106.917 147.139C116.721 127.494 108.599 105.323 97.4246 86.4238C86.5116 67.9668 70.9826 51.6168 49.5886 50.1768C25.6926 48.5688 0.222639 57.9088 -10.8714 79.1338C-21.4264 99.3268 -9.74436 121.987 1.77864 141.644C13.1146 160.982 27.2036 181.105 49.5886 182.275Z"
        fill="#FFAE00" fill-opacity="0.45" class="triangle-float2" />
    <path
        d="M1150.71 559.9C1185.13 558.032 1203.63 522.701 1220.85 492.179C1238.07 461.679 1259.62 427.144 1243.06 396.268C1226.15 364.738 1185.82 359.315 1150.71 361.392C1119.56 363.234 1091.61 379.089 1075.18 406.199C1057.73 434.988 1051.48 470.301 1066.35 500.564C1082.77 533.982 1114.18 561.883 1150.71 559.9Z"
        fill="#FFAE00" fill-opacity="0.45" class="triangle-float1" />
    <path
        d="M510.428 559.759C549.652 557.3 580.213 526.696 599.687 489.233C618.958 452.159 629.178 406.655 608.971 370.188C589.34 334.76 548.19 329.026 510.428 328.151C470.663 327.229 426.969 329.483 404.407 365.447C379.26 405.531 378.8 459.895 401.582 501.649C423.803 542.375 467.258 562.465 510.428 559.759Z"
        fill="#FFAE00" fill-opacity="0.45" class="triangle-float3" />
    <path
        d="M114.745 560C153.207 559.88 187.219 536.486 205.873 503.092C223.963 470.709 223.238 431.43 204.429 399.453C185.782 367.754 151.688 349.715 114.745 348.171C74.5707 346.49 31.3307 356.952 10.9443 391.361C-9.65398 426.128 1.43445 469.246 22.6196 503.664C42.7758 536.411 76.0893 560.12 114.745 560Z"
        fill="#FFAE00" fill-opacity="0.45" class="triangle-float2" />
    <style>
        @keyframes float1 {
            0% {
                transform: translate(0, 0)
            }

            50% {
                transform: translate(-10px, 0)
            }

            100% {
                transform: translate(0, 0)
            }
        }

        .triangle-float1 {
            animation: float1 5s infinite;
        }

        @keyframes float2 {
            0% {
                transform: translate(0, 0)
            }

            50% {
                transform: translate(-5px, -5px)
            }

            100% {
                transform: translate(0, 0)
            }
        }

        .triangle-float2 {
            animation: float2 4s infinite;
        }

        @keyframes float3 {
            0% {
                transform: translate(0, 0)
            }

            50% {
                transform: translate(0, -10px)
            }

            100% {
                transform: translate(0, 0)
            }
        }

        .triangle-float3 {
            animation: float3 6s infinite;
        }
    </style>
</svg>