<svg width="960" height="540" viewBox="0 0 960 540" fill="none" xmlns="http://www.w3.org/2000/svg">
<path d="M85 147C124.212 147 156 115.212 156 76C156 36.7878 124.212 5 85 5C45.7878 5 14 36.7878 14 76C14 115.212 45.7878 147 85 147Z" fill="#FFC800" fill-opacity="0.37"/>
<path d="M746 206C758.15 206 768 196.15 768 184C768 171.85 758.15 162 746 162C733.85 162 724 171.85 724 184C724 196.15 733.85 206 746 206Z" fill="#FFC800" fill-opacity="0.37"/>
<path d="M125 280C152.062 280 174 258.062 174 231C174 203.938 152.062 182 125 182C97.938 182 76 203.938 76 231C76 258.062 97.938 280 125 280Z" fill="#FFC800" fill-opacity="0.37"/>
<path d="M230 160C259.823 160 284 135.823 284 106C284 76.1766 259.823 52 230 52C200.177 52 176 76.1766 176 106C176 135.823 200.177 160 230 160Z" fill="#FFC800" fill-opacity="0.37"/>
<path d="M546 351C563.673 351 578 336.673 578 319C578 301.327 563.673 287 546 287C528.327 287 514 301.327 514 319C514 336.673 528.327 351 546 351Z" fill="#FFC800" fill-opacity="0.37"/>
<path d="M317 468C344.614 468 367 445.614 367 418C367 390.386 344.614 368 317 368C289.386 368 267 390.386 267 418C267 445.614 289.386 468 317 468Z" fill="#FFC800" fill-opacity="0.37"/>
<path d="M873 297C899.51 297 921 275.51 921 249C921 222.49 899.51 201 873 201C846.49 201 825 222.49 825 249C825 275.51 846.49 297 873 297Z" fill="#FFC800" fill-opacity="0.37"/>
</svg>
