<svg width="512" height="525" viewBox="0 0 512 525" fill="none" xmlns="http://www.w3.org/2000/svg">
<g filter="url(#filter0_d_7:8)">
<path d="M425.86 152.935C466.29 210.012 507.142 252.199 507.987 295.277C508.831 338.355 469.609 382.26 429.179 414.075C388.75 445.89 347.113 465.616 289.004 482.923C230.894 500.231 156.371 515.184 99.7694 483.368C43.2285 451.553 4.60925 372.97 4.00583 293.813C3.46274 214.593 40.9355 134.801 97.5367 77.7242C154.078 20.7113 229.747 -13.6492 287.616 5.18541C345.424 23.9564 385.431 95.9225 425.86 152.935Z" fill="#FFAE00"/>
</g>
<g filter="url(#filter1_d_7:8)">
<mask id="mask0_7:8" style="mask-type:alpha" maskUnits="userSpaceOnUse" x="68" y="100" width="358" height="417">
<path d="M289.909 347.329V378.721H297.061C368.155 378.721 425.788 433.752 425.788 501.636V517H68.2121V501.636C68.2121 433.752 125.845 378.721 196.939 378.721H204.091V347.329C173.273 333.35 151.12 304.78 147.424 270.969C137.01 269.563 129 261.018 129 250.686V226.786C129 216.635 136.732 208.209 146.879 206.583V196.057C146.879 143.259 191.705 100.457 247 100.457C302.295 100.457 347.121 143.259 347.121 196.057V206.583C357.268 208.209 365 216.635 365 226.786V250.686C365 261.018 356.99 269.563 346.576 270.969C342.88 304.78 320.727 333.35 289.909 347.329Z" fill="white"/>
</mask>
<g mask="url(#mask0_7:8)">
<path d="M289.909 347.329V378.721H297.061C368.155 378.721 425.788 433.752 425.788 501.636V517H68.2121V501.636C68.2121 433.752 125.845 378.721 196.939 378.721H204.091V347.329C173.273 333.35 151.12 304.78 147.424 270.969C137.01 269.563 129 261.018 129 250.686V226.786C129 216.635 136.732 208.209 146.879 206.583V196.057C146.879 143.259 191.705 100.457 247 100.457C302.295 100.457 347.121 143.259 347.121 196.057V206.583C357.268 208.209 365 216.635 365 226.786V250.686C365 261.018 356.99 269.563 346.576 270.969C342.88 304.78 320.727 333.35 289.909 347.329Z" fill="#D0C6AC"/>
<path d="M540.212 100.457H68.2121V578.457H540.212V100.457Z" fill="#F8D25C"/>
<path fill-rule="evenodd" clip-rule="evenodd" d="M347.121 235.321V274.586C347.121 327.384 302.295 370.186 247 370.186C191.705 370.186 146.879 327.384 146.879 274.586V235.321V260.929C146.879 313.727 191.705 356.529 247 356.529C302.295 356.529 347.121 313.727 347.121 260.929V235.321Z" fill="black" fill-opacity="0.1"/>
</g>
<mask id="mask1_7:8" style="mask-type:alpha" maskUnits="userSpaceOnUse" x="68" y="351" width="358" height="166">
<path fill-rule="evenodd" clip-rule="evenodd" d="M204.091 351.528C172.054 354.951 147.379 364.299 146.886 388.358C100.656 407.006 68.2121 450.702 68.2121 501.635V517H425.788V501.635C425.788 450.702 393.344 407.006 347.114 388.358C346.621 364.299 321.946 354.951 289.909 351.528V383.843C289.909 406.471 270.698 424.814 247 424.814C223.302 424.814 204.091 406.471 204.091 383.843V351.528Z" fill="white"/>
</mask>
<g mask="url(#mask1_7:8)">
<path fill-rule="evenodd" clip-rule="evenodd" d="M204.091 351.528C172.054 354.951 147.379 364.299 146.886 388.358C100.656 407.006 68.2121 450.702 68.2121 501.635V517H425.788V501.635C425.788 450.702 393.344 407.006 347.114 388.358C346.621 364.299 321.946 354.951 289.909 351.528V383.843C289.909 406.471 270.698 424.814 247 424.814C223.302 424.814 204.091 406.471 204.091 383.843V351.528Z" fill="#B7C1DB"/>
<path d="M483 329.214H11V517H483V329.214Z" fill="#25557C"/>
<path fill-rule="evenodd" clip-rule="evenodd" d="M193.364 434.612V517H180.849V428.485C184.789 430.721 188.978 432.771 193.364 434.612ZM313.152 428.485V497.368C313.152 500.668 310.35 503.343 306.894 503.343C303.438 503.343 300.636 500.668 300.636 497.368V434.612C305.022 432.771 309.211 430.721 313.152 428.485Z" fill="#F4F4F4"/>
<path fill-rule="evenodd" clip-rule="evenodd" d="M173.626 350.937C146.717 355.797 128.106 365.479 128.106 384.368C128.106 418.02 187.173 445.3 247 445.3C306.827 445.3 365.894 418.02 365.894 384.368C365.894 365.479 347.283 355.797 320.374 350.937C336.617 356.656 347.121 366.27 347.121 382.267C347.121 417.079 297.38 445.3 247 445.3C196.62 445.3 146.879 417.079 146.879 382.267C146.879 366.27 157.383 356.656 173.626 350.937Z" fill="black" fill-opacity="0.16"/>
</g>
<mask id="mask2_7:8" style="mask-type:alpha" maskUnits="userSpaceOnUse" x="213" y="289" width="68" height="34">
<path fill-rule="evenodd" clip-rule="evenodd" d="M213.241 293.583C215.132 309.787 229.525 322.386 247 322.386C264.529 322.386 278.957 309.709 280.776 293.433C280.923 292.123 279.391 289.95 277.47 289.95C250.842 289.95 230.441 289.95 216.761 289.95C214.83 289.95 213.052 291.962 213.241 293.583Z" fill="white"/>
</mask>
<g mask="url(#mask2_7:8)">
<path fill-rule="evenodd" clip-rule="evenodd" d="M213.241 293.583C215.132 309.787 229.525 322.386 247 322.386C264.529 322.386 278.957 309.709 280.776 293.433C280.923 292.123 279.391 289.95 277.47 289.95C250.842 289.95 230.441 289.95 216.761 289.95C214.83 289.95 213.052 291.962 213.241 293.583Z" fill="black" fill-opacity="0.7"/>
<path d="M266.667 271.171H229.121C224.184 271.171 220.182 274.993 220.182 279.707V289.95C220.182 294.664 224.184 298.486 229.121 298.486H266.667C271.604 298.486 275.606 294.664 275.606 289.95V279.707C275.606 274.993 271.604 271.171 266.667 271.171Z" fill="white"/>
<path d="M238.061 346.286C248.922 346.286 257.727 337.878 257.727 327.507C257.727 317.136 248.922 308.729 238.061 308.729C227.199 308.729 218.394 317.136 218.394 327.507C218.394 337.878 227.199 346.286 238.061 346.286Z" fill="#FF4F6D"/>
<path d="M255.939 346.286C266.801 346.286 275.606 337.878 275.606 327.507C275.606 317.136 266.801 308.729 255.939 308.729C245.078 308.729 236.273 317.136 236.273 327.507C236.273 337.878 245.078 346.286 255.939 346.286Z" fill="#FF4F6D"/>
</g>
<path fill-rule="evenodd" clip-rule="evenodd" d="M225.545 260.929C225.545 268.471 235.151 274.586 247 274.586C258.849 274.586 268.455 268.471 268.455 260.929" fill="black" fill-opacity="0.16"/>
<path fill-rule="evenodd" clip-rule="evenodd" d="M175.771 230.964C179.073 224.479 186.506 219.957 195.147 219.957C203.758 219.957 211.169 224.447 214.488 230.895C215.474 232.811 214.071 234.378 212.656 233.217C208.274 229.619 202.05 227.373 195.147 227.373C188.46 227.373 182.411 229.481 178.055 232.883C176.462 234.127 174.806 232.86 175.771 230.964Z" fill="black" fill-opacity="0.6"/>
<path fill-rule="evenodd" clip-rule="evenodd" d="M279.468 230.964C282.77 224.479 290.203 219.957 298.844 219.957C307.455 219.957 314.866 224.447 318.185 230.895C319.171 232.811 317.768 234.378 316.353 233.217C311.971 229.619 305.747 227.373 298.844 227.373C292.157 227.373 286.108 229.481 281.752 232.883C280.159 234.127 278.503 232.86 279.468 230.964Z" fill="black" fill-opacity="0.6"/>
<path fill-rule="evenodd" clip-rule="evenodd" d="M187.582 181.68L189.211 180.993C198.583 177.44 212.788 178.93 221.474 182.911C222.488 183.376 221.795 184.879 220.756 184.802C194.083 182.837 176.125 198.708 170.025 209.453C169.844 209.772 169.297 209.808 169.162 209.511C165.037 200.431 177.118 185.637 187.582 181.68Z" fill="black" fill-opacity="0.6"/>
<path fill-rule="evenodd" clip-rule="evenodd" d="M302.411 199.591C312.712 200.911 328.775 209.484 327.432 219.407C327.388 219.731 326.873 219.833 326.651 219.561C322.206 214.119 287.833 206.123 275.315 207.793C274.17 207.946 273.413 206.817 274.195 206.112C280.89 200.077 293.183 198.399 302.411 199.591Z" fill="black" fill-opacity="0.6"/>
<mask id="mask3_7:8" style="mask-type:alpha" maskUnits="userSpaceOnUse" x="11" y="39" width="472" height="478">
<path d="M483 39H11V517H483V39Z" fill="white"/>
</mask>
<g mask="url(#mask3_7:8)">
<mask id="mask4_7:8" style="mask-type:alpha" maskUnits="userSpaceOnUse" x="145" y="206" width="204" height="153">
<path fill-rule="evenodd" clip-rule="evenodd" d="M278.16 329.502C273.666 333.418 268.879 335.18 262.828 333.948C261.787 333.736 257.542 326.2 247 326.2C236.457 326.2 232.213 333.736 231.171 333.948C225.121 335.18 220.333 333.418 215.84 329.502C207.392 322.139 200.366 311.986 204.588 300.908C206.788 295.134 210.366 288.796 216.875 286.956C223.826 284.992 233.585 286.952 240.59 285.611C242.859 285.176 245.338 284.403 247 283.121C248.661 284.403 251.141 285.176 253.409 285.611C260.414 286.952 270.173 284.992 277.124 286.956C283.633 288.796 287.212 295.134 289.412 300.908C293.634 311.986 286.608 322.139 278.16 329.502ZM347.266 206.3C341.169 220.64 343.524 238.493 342.395 253.547C341.479 265.782 338.785 284.121 327.406 292.023C321.587 296.064 310.996 302.856 303.393 300.961C298.159 299.657 297.601 285.324 290.723 279.958C282.922 273.873 273.18 271.199 263.358 271.612C259.119 271.79 250.547 271.748 247 274.86C243.452 271.748 234.881 271.79 230.643 271.612C220.82 271.199 211.078 273.873 203.277 279.958C196.399 285.324 195.841 299.657 190.607 300.961C183.004 302.856 172.413 296.064 166.594 292.023C155.215 284.121 152.522 265.782 151.604 253.547C150.476 238.493 152.831 220.64 146.734 206.3C143.767 206.3 145.724 233.834 145.724 233.834V268.585C145.78 294.684 162.854 333.748 200.708 348.664C209.966 352.312 230.936 358.236 247 358.236C263.063 358.236 284.034 352.876 293.291 349.228C331.146 334.311 348.219 294.684 348.276 268.585V233.834C348.276 233.834 350.232 206.3 347.266 206.3Z" fill="white"/>
</mask>
<g mask="url(#mask4_7:8)">
<path fill-rule="evenodd" clip-rule="evenodd" d="M278.16 329.502C273.666 333.418 268.879 335.18 262.828 333.948C261.787 333.736 257.542 326.2 247 326.2C236.457 326.2 232.213 333.736 231.171 333.948C225.121 335.18 220.333 333.418 215.84 329.502C207.392 322.139 200.366 311.986 204.588 300.908C206.788 295.134 210.366 288.796 216.875 286.956C223.826 284.992 233.585 286.952 240.59 285.611C242.859 285.176 245.338 284.403 247 283.121C248.661 284.403 251.141 285.176 253.409 285.611C260.414 286.952 270.173 284.992 277.124 286.956C283.633 288.796 287.212 295.134 289.412 300.908C293.634 311.986 286.608 322.139 278.16 329.502ZM347.266 206.3C341.169 220.64 343.524 238.493 342.395 253.547C341.479 265.782 338.785 284.121 327.406 292.023C321.587 296.064 310.996 302.856 303.393 300.961C298.159 299.657 297.601 285.324 290.723 279.958C282.922 273.873 273.18 271.199 263.358 271.612C259.119 271.79 250.547 271.748 247 274.86C243.452 271.748 234.881 271.79 230.643 271.612C220.82 271.199 211.078 273.873 203.277 279.958C196.399 285.324 195.841 299.657 190.607 300.961C183.004 302.856 172.413 296.064 166.594 292.023C155.215 284.121 152.522 265.782 151.604 253.547C150.476 238.493 152.831 220.64 146.734 206.3C143.767 206.3 145.724 233.834 145.724 233.834V268.585C145.78 294.684 162.854 333.748 200.708 348.664C209.966 352.312 230.936 358.236 247 358.236C263.063 358.236 284.034 352.876 293.291 349.228C331.146 334.311 348.219 294.684 348.276 268.585V233.834C348.276 233.834 350.232 206.3 347.266 206.3Z" fill="#331B0C"/>
<path d="M511.606 161.914H39.606V578.457H511.606V161.914Z" fill="#B58143"/>
</g>
<mask id="mask5_7:8" style="mask-type:alpha" maskUnits="userSpaceOnUse" x="141" y="68" width="210" height="141">
<path fill-rule="evenodd" clip-rule="evenodd" d="M331.298 107.15C326.364 102.336 320.635 98.2495 315.063 94.1519C313.834 93.2486 312.584 92.3671 311.382 91.4295C311.109 91.2164 308.31 89.3022 307.975 88.5977C307.169 86.9029 307.636 88.2225 307.747 86.2001C307.888 83.6426 313.349 76.4194 309.274 74.7629C307.481 74.0344 304.283 75.9732 302.563 76.6136C299.199 77.8668 295.794 78.9356 292.317 79.8572C293.983 76.6875 297.16 70.3423 291.189 72.0406C286.538 73.3637 282.203 76.7654 277.529 78.3657C279.076 75.9451 285.26 68.4447 279.672 68.0254C277.933 67.8948 272.873 71.0096 271 71.674C265.392 73.6644 259.664 74.9508 253.776 75.964C233.755 79.4093 210.344 78.427 191.82 87.1303C177.54 93.8397 163.439 104.25 155.19 117.507C147.238 130.285 144.265 144.27 142.6 158.912C141.379 169.658 141.28 180.766 141.851 191.55C142.038 195.084 142.454 211.372 147.83 206.439C150.508 203.981 150.489 194.057 151.163 190.697C152.506 184.014 153.798 177.3 156.036 170.83C159.981 159.429 164.634 147.283 174.46 139.431C180.766 134.392 185.194 127.582 191.229 122.498C193.94 120.215 191.871 120.453 196.229 120.753C199.157 120.954 202.098 121.03 205.032 121.104C211.819 121.272 218.616 121.229 225.405 121.252C239.076 121.299 252.684 121.483 266.343 120.8C272.412 120.497 278.499 120.332 284.552 119.796C287.934 119.497 293.934 117.427 296.718 119.009C299.266 120.455 301.911 125.18 303.741 127.114C308.062 131.687 313.215 135.179 318.269 138.928C328.807 146.746 334.128 156.565 337.328 168.783C340.517 180.955 339.623 192.247 343.569 204.225C344.264 206.332 346.1 209.962 348.364 206.708C348.785 206.104 348.676 202.782 348.676 200.87C348.676 193.154 350.722 187.365 350.697 179.599C350.596 155.986 349.797 125.195 331.298 107.15Z" fill="white"/>
</mask>
<g mask="url(#mask5_7:8)">
<path fill-rule="evenodd" clip-rule="evenodd" d="M331.298 107.15C326.364 102.336 320.635 98.2495 315.063 94.1519C313.834 93.2486 312.584 92.3671 311.382 91.4295C311.109 91.2164 308.31 89.3022 307.975 88.5977C307.169 86.9029 307.636 88.2225 307.747 86.2001C307.888 83.6426 313.349 76.4194 309.274 74.7629C307.481 74.0344 304.283 75.9732 302.563 76.6136C299.199 77.8668 295.794 78.9356 292.317 79.8572C293.983 76.6875 297.16 70.3423 291.189 72.0406C286.538 73.3637 282.203 76.7654 277.529 78.3657C279.076 75.9451 285.26 68.4447 279.672 68.0254C277.933 67.8948 272.873 71.0096 271 71.674C265.392 73.6644 259.664 74.9508 253.776 75.964C233.755 79.4093 210.344 78.427 191.82 87.1303C177.54 93.8397 163.439 104.25 155.19 117.507C147.238 130.285 144.265 144.27 142.6 158.912C141.379 169.658 141.28 180.766 141.851 191.55C142.038 195.084 142.454 211.372 147.83 206.439C150.508 203.981 150.489 194.057 151.163 190.697C152.506 184.014 153.798 177.3 156.036 170.83C159.981 159.429 164.634 147.283 174.46 139.431C180.766 134.392 185.194 127.582 191.229 122.498C193.94 120.215 191.871 120.453 196.229 120.753C199.157 120.954 202.098 121.03 205.032 121.104C211.819 121.272 218.616 121.229 225.405 121.252C239.076 121.299 252.684 121.483 266.343 120.8C272.412 120.497 278.499 120.332 284.552 119.796C287.934 119.497 293.934 117.427 296.718 119.009C299.266 120.455 301.911 125.18 303.741 127.114C308.062 131.687 313.215 135.179 318.269 138.928C328.807 146.746 334.128 156.565 337.328 168.783C340.517 180.955 339.623 192.247 343.569 204.225C344.264 206.332 346.1 209.962 348.364 206.708C348.785 206.104 348.676 202.782 348.676 200.87C348.676 193.154 350.722 187.365 350.697 179.599C350.596 155.986 349.797 125.195 331.298 107.15Z" fill="#1F3140"/>
<path d="M481.212 39H9.2121V517H481.212V39Z" fill="#724133"/>
<g filter="url(#filter2_d_7:8)">
<path fill-rule="evenodd" clip-rule="evenodd" d="M232.184 231.054C232.184 247.617 217.434 261.051 192.856 261.051H187.939C163.36 261.051 153.527 247.612 153.527 231.054C153.527 214.485 155.823 201.057 190.235 201.057H195.477C229.889 201.057 232.184 214.485 232.184 231.054Z" fill="black" fill-opacity="0.7"/>
<path style="mix-blend-mode:screen" fill-rule="evenodd" clip-rule="evenodd" d="M232.184 231.054C232.184 247.617 217.434 261.051 192.856 261.051H187.939C163.36 261.051 153.527 247.612 153.527 231.054C153.527 214.485 155.823 201.057 190.235 201.057H195.477C229.889 201.057 232.184 214.485 232.184 231.054Z" fill="url(#paint0_linear_7:8)"/>
<path fill-rule="evenodd" clip-rule="evenodd" d="M342.261 231.054C342.261 247.617 327.516 261.051 302.932 261.051H298.015C273.437 261.051 263.603 247.612 263.603 231.054C263.603 214.485 265.899 201.057 300.311 201.057H305.553C339.96 201.057 342.261 214.485 342.261 231.054Z" fill="black" fill-opacity="0.7"/>
<path style="mix-blend-mode:screen" fill-rule="evenodd" clip-rule="evenodd" d="M342.261 231.054C342.261 247.617 327.516 261.051 302.932 261.051H298.015C273.437 261.051 263.603 247.612 263.603 231.054C263.603 214.485 265.899 201.057 300.311 201.057H305.553C339.96 201.057 342.261 214.485 342.261 231.054Z" fill="url(#paint1_linear_7:8)"/>
<path d="M192.856 266.05H187.939C163.109 266.05 148.285 252.966 148.285 231.054C148.285 213.345 151.525 196.057 190.235 196.057H195.477C234.187 196.057 237.426 213.345 237.426 231.054C237.426 251.656 219.101 266.05 192.856 266.05ZM190.235 206.051C158.769 206.051 158.769 217.085 158.769 231.054C158.769 242.457 163.827 256.051 187.939 256.051H192.856C212.926 256.051 226.943 245.772 226.943 231.054C226.943 217.085 226.943 206.051 195.477 206.051H190.235Z" fill="#252C2F"/>
<path d="M302.932 266.05H298.015C273.185 266.05 258.362 252.966 258.362 231.054C258.362 213.345 261.601 196.057 300.311 196.057H305.553C344.263 196.057 347.503 213.345 347.503 231.054C347.503 251.656 329.178 266.05 302.932 266.05ZM300.311 206.051C268.845 206.051 268.845 217.085 268.845 231.054C268.845 242.457 273.909 256.051 298.015 256.051H302.932C323.003 256.051 337.019 245.772 337.019 231.054C337.019 217.085 337.019 206.051 305.553 206.051H300.311Z" fill="#252C2F"/>
<path d="M137.817 206.056C139.044 204.886 152.463 196.057 190.235 196.057C221.905 196.057 228.61 199.267 238.758 204.116L239.5 204.474C240.206 204.718 243.814 205.915 248.034 206.046C251.879 205.885 255.168 204.867 256.129 204.541C267.712 199.041 279.05 196.057 305.553 196.057C343.325 196.057 356.744 204.886 357.97 206.056C360.869 206.056 363.212 208.291 363.212 211.056V216.055C363.212 218.82 360.869 221.055 357.97 221.055C357.97 221.055 347.487 221.055 347.487 226.054C347.487 231.054 342.245 218.82 342.245 216.055V211.186C335.853 208.797 324.409 206.056 305.553 206.056C284.545 206.056 274.082 207.987 265.107 211.599L265.207 211.836L260.745 213.555L265.203 215.277L261.269 224.545L256.411 222.669C255.977 222.502 255.04 222.201 253.742 221.888C250.123 221.016 246.402 220.751 243.111 221.41C241.904 221.652 240.784 222.016 239.756 222.506L235.068 224.743L230.377 215.801L235.065 213.564L235.077 213.558L230.586 211.826L230.729 211.488C222.989 207.966 215.852 206.056 190.235 206.056C171.38 206.056 159.937 208.795 153.543 211.184V216.055C153.543 218.82 148.301 231.054 148.301 226.054C148.301 221.055 137.817 221.055 137.817 221.055C134.924 221.055 132.576 218.82 132.576 216.055V211.056C132.576 208.291 134.924 206.056 137.817 206.056Z" fill="#252C2F"/>
</g>
</g>
</g>
</g>
<defs>
<filter id="filter0_d_7:8" x="0" y="0" width="512" height="510" filterUnits="userSpaceOnUse" color-interpolation-filters="sRGB">
<feFlood flood-opacity="0" result="BackgroundImageFix"/>
<feColorMatrix in="SourceAlpha" type="matrix" values="0 0 0 0 0 0 0 0 0 0 0 0 0 0 0 0 0 0 127 0" result="hardAlpha"/>
<feOffset dy="4"/>
<feGaussianBlur stdDeviation="2"/>
<feComposite in2="hardAlpha" operator="out"/>
<feColorMatrix type="matrix" values="0 0 0 0 0 0 0 0 0 0 0 0 0 0 0 0 0 0 0.25 0"/>
<feBlend mode="normal" in2="BackgroundImageFix" result="effect1_dropShadow_7:8"/>
<feBlend mode="normal" in="SourceGraphic" in2="effect1_dropShadow_7:8" result="shape"/>
</filter>
<filter id="filter1_d_7:8" x="7" y="39" width="480" height="486" filterUnits="userSpaceOnUse" color-interpolation-filters="sRGB">
<feFlood flood-opacity="0" result="BackgroundImageFix"/>
<feColorMatrix in="SourceAlpha" type="matrix" values="0 0 0 0 0 0 0 0 0 0 0 0 0 0 0 0 0 0 127 0" result="hardAlpha"/>
<feOffset dy="4"/>
<feGaussianBlur stdDeviation="2"/>
<feComposite in2="hardAlpha" operator="out"/>
<feColorMatrix type="matrix" values="0 0 0 0 0 0 0 0 0 0 0 0 0 0 0 0 0 0 0.25 0"/>
<feBlend mode="normal" in2="BackgroundImageFix" result="effect1_dropShadow_7:8"/>
<feBlend mode="normal" in="SourceGraphic" in2="effect1_dropShadow_7:8" result="shape"/>
</filter>
<filter id="filter2_d_7:8" x="128.576" y="194.057" width="238.636" height="77.9929" filterUnits="userSpaceOnUse" color-interpolation-filters="sRGB">
<feFlood flood-opacity="0" result="BackgroundImageFix"/>
<feColorMatrix in="SourceAlpha" type="matrix" values="0 0 0 0 0 0 0 0 0 0 0 0 0 0 0 0 0 0 127 0" result="hardAlpha"/>
<feOffset dy="2"/>
<feGaussianBlur stdDeviation="2"/>
<feColorMatrix type="matrix" values="0 0 0 0 0 0 0 0 0 0 0 0 0 0 0 0 0 0 0.2 0"/>
<feBlend mode="normal" in2="BackgroundImageFix" result="effect1_dropShadow_7:8"/>
<feBlend mode="normal" in="SourceGraphic" in2="effect1_dropShadow_7:8" result="shape"/>
</filter>
<linearGradient id="paint0_linear_7:8" x1="192.856" y1="201.057" x2="192.856" y2="261.051" gradientUnits="userSpaceOnUse">
<stop stop-color="white" stop-opacity="0.5"/>
<stop offset="0.705058" stop-opacity="0.5"/>
</linearGradient>
<linearGradient id="paint1_linear_7:8" x1="302.932" y1="201.057" x2="302.932" y2="261.051" gradientUnits="userSpaceOnUse">
<stop stop-color="white" stop-opacity="0.5"/>
<stop offset="0.705058" stop-opacity="0.5"/>
</linearGradient>
</defs>
</svg>
