<svg width="1440" height="560" viewBox="0 0 1440 560" fill="none" xmlns="http://www.w3.org/2000/svg">
    <path
        d="M548.97 501.12C548.97 510.506 552.699 519.508 559.336 526.145C565.972 532.781 574.974 536.51 584.36 536.51C593.746 536.51 602.748 532.781 609.385 526.145C616.021 519.508 619.75 510.506 619.75 501.12C619.75 491.734 616.021 482.732 609.385 476.095C602.748 469.459 593.746 465.73 584.36 465.73C574.974 465.73 565.972 469.459 559.336 476.095C552.699 482.732 548.97 491.734 548.97 501.12V501.12Z"
        fill="#E73635" class="triangle-float1" />
    <path d="M1029 371.03H1036.29V379.15H1029V371.03Z" stroke="#037B0B" class="triangle-float3" />
    <path
        d="M375.41 246.81C375.731 247.16 376.178 247.368 376.652 247.389C377.127 247.41 377.59 247.241 377.94 246.92C378.29 246.599 378.498 246.152 378.519 245.678C378.54 245.203 378.371 244.74 378.05 244.39L375.41 246.81Z"
        stroke="#D3B714" class="triangle-float3" />
    <path d="M1307.93 180.64H1341.77V220.8H1307.93V180.64Z" fill="#E73635" class="triangle-float2" />
    <path
        d="M1293.98 371.28C1291.58 370.17 1288.99 369.546 1286.35 369.444C1283.71 369.342 1281.07 369.764 1278.6 370.686C1276.12 371.607 1273.85 373.011 1271.92 374.814C1269.99 376.618 1268.44 378.786 1267.35 381.194C1266.26 383.601 1265.66 386.2 1265.59 388.841C1265.51 391.482 1265.95 394.112 1266.9 396.58C1267.84 399.047 1269.27 401.303 1271.09 403.217C1272.91 405.13 1275.09 406.664 1277.51 407.73L1293.98 371.28Z"
        fill="#037B0B" class="triangle-float3" />
    <path
        d="M83 160.21C83 171.405 87.4471 182.141 95.363 190.057C103.279 197.973 114.015 202.42 125.21 202.42C136.405 202.42 147.141 197.973 155.057 190.057C162.973 182.141 167.42 171.405 167.42 160.21C167.42 149.015 162.973 138.279 155.057 130.363C147.141 122.447 136.405 118 125.21 118C114.015 118 103.279 122.447 95.363 130.363C87.4471 138.279 83 149.015 83 160.21V160.21Z"
        stroke="#037B0B" class="triangle-float1" />
    <path
        d="M8.17004 150.33C8.17004 155.085 10.0591 159.646 13.4216 163.008C16.7841 166.371 21.3447 168.26 26.1 168.26C30.8554 168.26 35.4159 166.371 38.7785 163.008C42.141 159.646 44.03 155.085 44.03 150.33C44.03 145.575 42.141 141.014 38.7785 137.652C35.4159 134.289 30.8554 132.4 26.1 132.4C21.3447 132.4 16.7841 134.289 13.4216 137.652C10.0591 141.014 8.17004 145.575 8.17004 150.33V150.33Z"
        stroke="#037B0B" class="triangle-float1" />
    <path
        d="M255.36 81.08C254.399 85.8339 254.383 90.7305 255.314 95.4903C256.245 100.25 258.105 104.78 260.787 108.821C263.468 112.862 266.92 116.336 270.944 119.043C274.968 121.751 279.486 123.639 284.24 124.6C288.994 125.561 293.89 125.577 298.65 124.646C303.41 123.715 307.94 121.855 311.981 119.173C316.022 116.492 319.496 113.04 322.203 109.016C324.911 104.992 326.799 100.474 327.76 95.72L255.36 81.08Z"
        fill="#037B0B" class="triangle-float3" />
    <path d="M932.14 155.69H960.24V207.19H932.14V155.69Z" fill="#E73635" class="triangle-float2" />
    <path
        d="M930.14 145.52C930.14 157.731 934.991 169.441 943.625 178.075C952.259 186.709 963.969 191.56 976.18 191.56C988.391 191.56 1000.1 186.709 1008.74 178.075C1017.37 169.441 1022.22 157.731 1022.22 145.52C1022.22 133.309 1017.37 121.599 1008.74 112.965C1000.1 104.331 988.391 99.48 976.18 99.48C963.969 99.48 952.259 104.331 943.625 112.965C934.991 121.599 930.14 133.309 930.14 145.52V145.52Z"
        stroke="#037B0B" class="triangle-float3" />
    <path
        d="M420.3 56.36C420.3 68.9445 425.299 81.0136 434.198 89.9122C443.096 98.8108 455.165 103.81 467.75 103.81C480.335 103.81 492.404 98.8108 501.302 89.9122C510.201 81.0136 515.2 68.9445 515.2 56.36C515.2 43.7755 510.201 31.7064 501.302 22.8078C492.404 13.9092 480.335 8.91 467.75 8.91C455.165 8.91 443.096 13.9092 434.198 22.8078C425.299 31.7064 420.3 43.7755 420.3 56.36V56.36Z"
        fill="#E73635" class="triangle-float2" />
    <path d="M1397.16 178H1428.54V209.38H1397.16V178Z" fill="#E73635" class="triangle-float1" />
    <path
        d="M905.6 285.04C905.443 285.215 905.322 285.419 905.245 285.642C905.168 285.864 905.137 286.1 905.152 286.334C905.168 286.569 905.23 286.798 905.336 287.008C905.442 287.219 905.589 287.405 905.768 287.558C905.947 287.71 906.155 287.825 906.379 287.896C906.604 287.967 906.84 287.992 907.074 287.969C907.308 287.947 907.536 287.878 907.743 287.767C907.95 287.655 908.133 287.503 908.28 287.32L905.6 285.04Z"
        stroke="#037B0B" class="triangle-float3" />
    <path
        d="M266.84 160.91C266.84 165.955 267.834 170.951 269.765 175.613C271.695 180.274 274.525 184.509 278.093 188.077C281.661 191.645 285.896 194.475 290.557 196.405C295.219 198.336 300.215 199.33 305.26 199.33C310.305 199.33 315.301 198.336 319.963 196.405C324.624 194.475 328.859 191.645 332.427 188.077C335.995 184.509 338.825 180.274 340.755 175.613C342.686 170.951 343.68 165.955 343.68 160.91C343.68 150.72 339.632 140.948 332.427 133.743C325.222 126.538 315.45 122.49 305.26 122.49C295.07 122.49 285.298 126.538 278.093 133.743C270.888 140.948 266.84 150.72 266.84 160.91V160.91Z"
        stroke="#D3B714" class="triangle-float3" />
    <path
        d="M671 501.44C671 514.552 676.209 527.128 685.481 536.399C694.752 545.671 707.328 550.88 720.44 550.88C733.552 550.88 746.128 545.671 755.399 536.399C764.671 527.128 769.88 514.552 769.88 501.44C769.88 488.328 764.671 475.752 755.399 466.481C746.128 457.209 733.552 452 720.44 452C707.328 452 694.752 457.209 685.481 466.481C676.209 475.752 671 488.328 671 501.44V501.44Z"
        stroke="#D3B714" class="triangle-float2" />
    <path
        d="M323.96 182.09C323.96 183.228 324.412 184.319 325.216 185.123C326.021 185.928 327.112 186.38 328.25 186.38C329.388 186.38 330.479 185.928 331.283 185.123C332.088 184.319 332.54 183.228 332.54 182.09C332.54 180.952 332.088 179.861 331.283 179.057C330.479 178.252 329.388 177.8 328.25 177.8C327.112 177.8 326.021 178.252 325.216 179.057C324.412 179.861 323.96 180.952 323.96 182.09V182.09Z"
        stroke="#D3B714" class="triangle-float3" />
    <path
        d="M462.97 368.47C463.69 370.98 464.899 373.323 466.53 375.362C468.16 377.402 470.178 379.098 472.468 380.353C474.758 381.608 477.274 382.397 479.87 382.673C482.467 382.95 485.092 382.71 487.595 381.966C490.098 381.222 492.429 379.989 494.452 378.339C496.476 376.689 498.152 374.654 499.385 372.352C500.617 370.05 501.382 367.527 501.633 364.928C501.884 362.329 501.618 359.706 500.85 357.21L462.97 368.47Z"
        fill="#D3B714" class="triangle-float3" />
    <path d="M706.36 196.96H709.2V230.52H706.36V196.96Z" stroke="#E73635" class="triangle-float1" />
    <path d="M341.01 180.56H341.32V180.87H341.01V180.56Z" stroke="#D3B714" class="triangle-float3" />
    <path
        d="M366.91 433.14C366.91 435.231 367.322 437.301 368.122 439.232C368.922 441.164 370.095 442.919 371.573 444.397C373.051 445.875 374.806 447.048 376.738 447.848C378.669 448.648 380.739 449.06 382.83 449.06C384.921 449.06 386.991 448.648 388.922 447.848C390.854 447.048 392.609 445.875 394.087 444.397C395.565 442.919 396.738 441.164 397.538 439.232C398.338 437.301 398.75 435.231 398.75 433.14C398.75 431.049 398.338 428.979 397.538 427.048C396.738 425.116 395.565 423.361 394.087 421.883C392.609 420.405 390.854 419.232 388.922 418.432C386.991 417.632 384.921 417.22 382.83 417.22C380.739 417.22 378.669 417.632 376.738 418.432C374.806 419.232 373.051 420.405 371.573 421.883C370.095 423.361 368.922 425.116 368.122 427.048C367.322 428.979 366.91 431.049 366.91 433.14V433.14Z"
        stroke="#037B0B" class="triangle-float3" />
    <path
        d="M156.51 99.08C156.883 96.2429 156.69 93.36 155.942 90.5979C155.194 87.8359 153.906 85.2494 152.153 82.9878C150.4 80.7263 148.216 78.8345 145.727 77.4219C143.239 76.0093 140.495 75.1037 137.655 74.7576C134.814 74.4114 131.933 74.6315 129.178 75.4052C126.423 76.1789 123.849 77.4908 121.604 79.2651C119.359 81.0394 117.488 83.241 116.099 85.7426C114.709 88.2443 113.83 90.9964 113.51 93.84L156.51 99.08Z"
        fill="#037B0B" class="triangle-float3" />
    <path
        d="M83.36 275C83.5854 278.098 85.0322 280.979 87.382 283.01C89.7318 285.041 92.7923 286.055 95.89 285.83C98.9877 285.605 101.869 284.158 103.9 281.808C105.931 279.458 106.945 276.398 106.72 273.3L83.36 275Z"
        fill="#D3B714" class="triangle-float3" />
    <path d="M699.77 120.9H742.79V160.02H699.77V120.9Z" fill="#D3B714" class="triangle-float3" />
    <path
        d="M979.45 212.93C979.45 218.852 981.803 224.532 985.99 228.72C990.178 232.907 995.858 235.26 1001.78 235.26C1007.7 235.26 1013.38 232.907 1017.57 228.72C1021.76 224.532 1024.11 218.852 1024.11 212.93C1024.11 207.008 1021.76 201.328 1017.57 197.14C1013.38 192.953 1007.7 190.6 1001.78 190.6C995.858 190.6 990.178 192.953 985.99 197.14C981.803 201.328 979.45 207.008 979.45 212.93V212.93Z"
        stroke="#037B0B" class="triangle-float2" />
    <path d="M1183.64 430.83H1211.67V446.3H1183.64V430.83Z" fill="#E73635" class="triangle-float3" />
    <path
        d="M466.88 281.07C466.88 281.843 467.032 282.609 467.328 283.324C467.624 284.039 468.058 284.688 468.605 285.235C469.152 285.782 469.801 286.216 470.516 286.512C471.231 286.808 471.997 286.96 472.77 286.96C473.543 286.96 474.309 286.808 475.024 286.512C475.739 286.216 476.388 285.782 476.935 285.235C477.482 284.688 477.916 284.039 478.212 283.324C478.508 282.609 478.66 281.843 478.66 281.07C478.66 280.297 478.508 279.531 478.212 278.816C477.916 278.101 477.482 277.452 476.935 276.905C476.388 276.358 475.739 275.924 475.024 275.628C474.309 275.332 473.543 275.18 472.77 275.18C471.997 275.18 471.231 275.332 470.516 275.628C469.801 275.924 469.152 276.358 468.605 276.905C468.058 277.452 467.624 278.101 467.328 278.816C467.032 279.531 466.88 280.297 466.88 281.07V281.07Z"
        fill="#E73635" class="triangle-float1" />
    <path
        d="M1378.65 387.59C1378.65 392.481 1380.59 397.171 1384.05 400.629C1387.51 404.087 1392.2 406.03 1397.09 406.03C1401.98 406.03 1406.67 404.087 1410.13 400.629C1413.59 397.171 1415.53 392.481 1415.53 387.59C1415.53 382.699 1413.59 378.009 1410.13 374.551C1406.67 371.093 1401.98 369.15 1397.09 369.15C1392.2 369.15 1387.51 371.093 1384.05 374.551C1380.59 378.009 1378.65 382.699 1378.65 387.59Z"
        fill="#E73635" class="triangle-float3" />
    <path
        d="M83 76.3C87.8216 78.6163 93.0545 79.9535 98.3962 80.2343C103.738 80.5151 109.082 79.734 114.12 77.936C119.158 76.138 123.789 73.3589 127.746 69.7594C131.703 66.16 134.907 61.8117 137.172 56.9661C139.438 52.1204 140.72 46.8737 140.945 41.5293C141.169 36.185 140.332 30.8491 138.481 25.8305C136.63 20.8118 133.803 16.21 130.162 12.2912C126.521 8.37238 122.139 5.21442 117.27 3L83 76.3Z"
        fill="#037B0B" class="triangle-float2" />
    <path d="M1371 216.89H1404.71V238.84H1371V216.89Z" fill="#037B0B" class="triangle-float2" />
    <path d="M513.51 332.78H558.63V355.19H513.51V332.78Z" stroke="#037B0B" class="triangle-float3" />
    <path
        d="M355.27 288.17C350.617 291.965 347.662 297.454 347.055 303.428C346.448 309.401 348.24 315.372 352.035 320.025C355.83 324.678 361.319 327.633 367.293 328.24C373.267 328.847 379.237 327.055 383.89 323.26L355.27 288.17Z"
        fill="#037B0B" class="triangle-float3" />
    <path d="M1323.3 464.61H1369.75V511.06H1323.3V464.61Z" stroke="#037B0B" class="triangle-float1" />
    <path d="M233.59 350.69H276.64V389.12H233.59V350.69Z" fill="#E73635" class="triangle-float1" />
    <style>
        @keyframes float1 {
            0% {
                transform: translate(0, 0)
            }

            50% {
                transform: translate(-10px, 0)
            }

            100% {
                transform: translate(0, 0)
            }
        }

        .triangle-float1 {
            animation: float1 5s infinite;
        }

        @keyframes float2 {
            0% {
                transform: translate(0, 0)
            }

            50% {
                transform: translate(-5px, -5px)
            }

            100% {
                transform: translate(0, 0)
            }
        }

        .triangle-float2 {
            animation: float2 4s infinite;
        }

        @keyframes float3 {
            0% {
                transform: translate(0, 0)
            }

            50% {
                transform: translate(0, -10px)
            }

            100% {
                transform: translate(0, 0)
            }
        }

        .triangle-float3 {
            animation: float3 6s infinite;
        }
    </style>
</svg>