<svg xmlns="http://www.w3.org/2000/svg" version="1.1" xmlns:xlink="http://www.w3.org/1999/xlink"
    xmlns:svgjs="http://svgjs.com/svgjs" width="1440" height="560" preserveAspectRatio="none" viewBox="0 0 1440 560">
    <g mask="url(&quot;#SvgjsMask1453&quot;)" fill="none">
        <rect width="272.4" height="272.4" clip-path="url(&quot;#SvgjsClipPath1454&quot;)" x="52.42" y="109.7"
            fill="url(#SvgjsPattern1455)" transform="rotate(123.47, 188.62, 245.9)" class="triangle-float3"></rect>
        <path
            d="M1398.26 206.89a5.6 5.6 0 1 0 7.25-8.54 5.6 5.6 0 1 0-7.25 8.54zM1408.61 194.69a5.6 5.6 0 1 0 7.25-8.54 5.6 5.6 0 1 0-7.25 8.54zM1418.96 182.49a5.6 5.6 0 1 0 7.25-8.54 5.6 5.6 0 1 0-7.25 8.54zM1429.32 170.29a5.6 5.6 0 1 0 7.24-8.53 5.6 5.6 0 1 0-7.24 8.53zM1389.75 241.64a5.6 5.6 0 1 0 7.25-8.54 5.6 5.6 0 1 0-7.25 8.54zM1400.1 229.44a5.6 5.6 0 1 0 7.25-8.54 5.6 5.6 0 1 0-7.25 8.54zM1410.46 217.24a5.6 5.6 0 1 0 7.24-8.53 5.6 5.6 0 1 0-7.24 8.53zM1420.81 205.05a5.6 5.6 0 1 0 7.25-8.54 5.6 5.6 0 1 0-7.25 8.54z"
            fill="#d3b714" class="triangle-float1"></path>
        <path d="M884.63 569.2 L933.11 633.3299999999999L854.4125061668822 655.7224938331178z" fill="#e73635"></path>
        <rect width="360" height="360" clip-path="url(&quot;#SvgjsClipPath1456&quot;)" x="224.28" y="97.83"
            fill="url(#SvgjsPattern1457)" transform="rotate(134.41, 404.28, 277.83)" class="triangle-float1"></rect>
        <path d="M935.4100000000001 54.870000000000005 L947.1600000000001 168.86L1004.1148657276834 49.035134272316654z"
            stroke="#037b0b" stroke-width="2.71" stroke-dasharray="4, 4" class="triangle-float3"></path>
        <path d="M212.35 176.04 L209.6 66.71L283.7413361903715 48.60866380962851z" fill="#e73635"
            class="triangle-float2"></path>
        <rect width="266.4" height="266.4" clip-path="url(&quot;#SvgjsClipPath1458&quot;)" x="822.99" y="216.85"
            fill="url(#SvgjsPattern1459)" transform="rotate(290.99, 956.19, 350.05)" class="triangle-float3"></rect>
        <rect width="203.2" height="203.2" clip-path="url(&quot;#SvgjsClipPath1460&quot;)" x="1004.35" y="373.85"
            fill="url(#SvgjsPattern1461)" transform="rotate(32.27, 1105.95, 475.45)" class="triangle-float1"></rect>
        <circle r="81.41943470659218" cx="370.07" cy="430.86" stroke="#037b0b" stroke-width="1.23"
            stroke-dasharray="4, 4" class="triangle-float3"></circle>
        <path
            d="M434.62 60.2041C435.347 60.3594 436.098 60.3684 436.828 60.2305C437.559 60.0926 438.255 59.8105 438.875 59.4008C439.496 58.9911 440.029 58.462 440.442 57.8442C440.856 57.2265 441.143 56.5325 441.286 55.8028C441.428 55.0731 441.424 54.3223 441.274 53.5941C441.123 52.866 440.829 52.1751 440.409 51.5618C439.989 50.9484 439.45 50.425 438.826 50.0219C438.201 49.6188 437.502 49.3442 436.77 49.2141C436.043 49.0587 435.292 49.0498 434.561 49.1877C433.831 49.3256 433.135 49.6076 432.514 50.0173C431.894 50.427 431.361 50.9562 430.947 51.5739C430.534 52.1917 430.247 52.8856 430.104 53.6153C429.961 54.3451 429.965 55.0959 430.116 55.824C430.266 56.5522 430.56 57.2431 430.981 57.8564C431.401 58.4697 431.939 58.9932 432.564 59.3962C433.189 59.7993 433.888 60.0739 434.62 60.2041V60.2041ZM437.69 44.5041C438.417 44.6594 439.168 44.6684 439.898 44.5305C440.629 44.3926 441.325 44.1105 441.945 43.7008C442.566 43.2911 443.099 42.762 443.512 42.1442C443.926 41.5265 444.213 40.8325 444.356 40.1028C444.498 39.3731 444.494 38.6223 444.344 37.8941C444.193 37.166 443.899 36.4751 443.479 35.8618C443.059 35.2484 442.52 34.725 441.896 34.3219C441.271 33.9188 440.572 33.6442 439.84 33.5141C439.113 33.3587 438.362 33.3498 437.631 33.4877C436.901 33.6256 436.205 33.9076 435.584 34.3173C434.964 34.727 434.431 35.2562 434.017 35.8739C433.604 36.4917 433.317 37.1856 433.174 37.9153C433.031 38.6451 433.035 39.3959 433.186 40.124C433.336 40.8522 433.63 41.5431 434.051 42.1564C434.471 42.7697 435.009 43.2932 435.634 43.6962C436.259 44.0993 436.958 44.3739 437.69 44.5041V44.5041ZM440.76 28.8041C441.487 28.9594 442.238 28.9684 442.968 28.8305C443.699 28.6926 444.395 28.4105 445.015 28.0008C445.636 27.5911 446.169 27.062 446.582 26.4442C446.996 25.8265 447.283 25.1325 447.426 24.4028C447.568 23.6731 447.564 22.9223 447.414 22.1941C447.263 21.466 446.969 20.7751 446.549 20.1618C446.129 19.5484 445.59 19.025 444.966 18.6219C444.341 18.2188 443.642 17.9442 442.91 17.8141C442.183 17.6587 441.432 17.6498 440.701 17.7877C439.971 17.9256 439.275 18.2076 438.654 18.6173C438.034 19.027 437.501 19.5562 437.087 20.1739C436.674 20.7917 436.387 21.4856 436.244 22.2153C436.101 22.9451 436.105 23.6959 436.256 24.424C436.406 25.1522 436.7 25.8431 437.121 26.4564C437.541 27.0697 438.079 27.5932 438.704 27.9962C439.329 28.3993 440.028 28.6739 440.76 28.8041V28.8041ZM443.83 13.1041C444.552 13.2452 445.295 13.2428 446.016 13.0968C446.738 12.9508 447.423 12.6642 448.034 12.2533C448.644 11.8424 449.168 11.3153 449.575 10.702C449.982 10.0887 450.264 9.40134 450.405 8.67907C450.546 7.9568 450.544 7.2138 450.398 6.49248C450.252 5.77117 449.965 5.08567 449.554 4.47513C449.143 3.86458 448.616 3.34095 448.003 2.93412C447.39 2.52729 446.702 2.24524 445.98 2.10407C445.258 1.9629 444.515 1.96537 443.793 2.11135C443.072 2.25733 442.387 2.54395 441.776 2.95484C441.165 3.36574 440.642 3.89288 440.235 4.50614C439.828 5.11941 439.546 5.8068 439.405 6.52907C439.264 7.25134 439.266 7.99435 439.412 8.71566C439.558 9.43698 439.845 10.1225 440.256 10.733C440.667 11.3436 441.194 11.8672 441.807 12.274C442.42 12.6809 443.108 12.9629 443.83 13.1041V13.1041Z"
            fill="#d3b714" class="triangle-float1"></path>
        <path
            d="M642.62 178.204C643.347 178.359 644.098 178.368 644.828 178.23C645.559 178.093 646.255 177.811 646.875 177.401C647.496 176.991 648.029 176.462 648.442 175.844C648.856 175.226 649.143 174.533 649.286 173.803C649.428 173.073 649.424 172.322 649.274 171.594C649.123 170.866 648.829 170.175 648.409 169.562C647.989 168.948 647.45 168.425 646.826 168.022C646.201 167.619 645.502 167.344 644.77 167.214C644.043 167.059 643.292 167.05 642.561 167.188C641.831 167.326 641.135 167.608 640.514 168.017C639.894 168.427 639.361 168.956 638.947 169.574C638.534 170.192 638.247 170.886 638.104 171.615C637.961 172.345 637.965 173.096 638.116 173.824C638.266 174.552 638.56 175.243 638.981 175.856C639.401 176.47 639.939 176.993 640.564 177.396C641.189 177.799 641.888 178.074 642.62 178.204V178.204ZM645.69 162.504C646.417 162.659 647.168 162.668 647.898 162.53C648.629 162.393 649.325 162.111 649.945 161.701C650.566 161.291 651.099 160.762 651.512 160.144C651.926 159.526 652.213 158.833 652.356 158.103C652.498 157.373 652.494 156.622 652.344 155.894C652.193 155.166 651.899 154.475 651.479 153.862C651.059 153.248 650.52 152.725 649.896 152.322C649.271 151.919 648.572 151.644 647.84 151.514C647.113 151.359 646.362 151.35 645.631 151.488C644.901 151.626 644.205 151.908 643.584 152.317C642.964 152.727 642.431 153.256 642.017 153.874C641.604 154.492 641.317 155.186 641.174 155.915C641.031 156.645 641.035 157.396 641.186 158.124C641.336 158.852 641.63 159.543 642.051 160.156C642.471 160.77 643.009 161.293 643.634 161.696C644.259 162.099 644.958 162.374 645.69 162.504V162.504ZM648.76 146.804C649.487 146.959 650.238 146.968 650.968 146.83C651.699 146.693 652.395 146.411 653.015 146.001C653.636 145.591 654.169 145.062 654.582 144.444C654.996 143.826 655.283 143.133 655.426 142.403C655.568 141.673 655.564 140.922 655.414 140.194C655.263 139.466 654.969 138.775 654.549 138.162C654.129 137.548 653.59 137.025 652.966 136.622C652.341 136.219 651.642 135.944 650.91 135.814C650.183 135.659 649.432 135.65 648.701 135.788C647.971 135.926 647.275 136.208 646.654 136.617C646.034 137.027 645.501 137.556 645.087 138.174C644.674 138.792 644.387 139.486 644.244 140.215C644.101 140.945 644.105 141.696 644.256 142.424C644.406 143.152 644.7 143.843 645.121 144.456C645.541 145.07 646.079 145.593 646.704 145.996C647.329 146.399 648.028 146.674 648.76 146.804V146.804ZM651.83 131.104C652.552 131.245 653.295 131.243 654.016 131.097C654.738 130.951 655.423 130.664 656.034 130.253C656.644 129.842 657.168 129.315 657.575 128.702C657.982 128.089 658.264 127.401 658.405 126.679C658.546 125.957 658.544 125.214 658.398 124.492C658.252 123.771 657.965 123.086 657.554 122.475C657.143 121.865 656.616 121.341 656.003 120.934C655.39 120.527 654.702 120.245 653.98 120.104C653.258 119.963 652.515 119.965 651.793 120.111C651.072 120.257 650.387 120.544 649.776 120.955C649.165 121.366 648.642 121.893 648.235 122.506C647.828 123.119 647.546 123.807 647.405 124.529C647.264 125.251 647.266 125.994 647.412 126.716C647.558 127.437 647.845 128.122 648.256 128.733C648.667 129.344 649.194 129.867 649.807 130.274C650.42 130.681 651.108 130.963 651.83 131.104V131.104Z"
            fill="#D3B714" class="triangle-float3" />
        <path
            d="M51.89 61.4L42.56 52.63L49.07 41.6L39.74 32.83L46.25 21.8L36.92 13.03L43.43 2M43.97 62.53L34.64 53.75L41.15 42.73L31.82 33.95L38.33 22.93L29 14.15L35.51 3.13L43.97 62.53Z"
            stroke="#037B0B" stroke-width="1.95" stroke-dasharray="3 3" class="triangle-float1" />
        <path
            d="M797.419 170.839C842.386 170.839 878.839 134.386 878.839 89.4194C878.839 44.4527 842.386 8 797.419 8C752.453 8 716 44.4527 716 89.4194C716 134.386 752.453 170.839 797.419 170.839Z"
            stroke="#037B0B" stroke-width="1.23" stroke-dasharray="4 4" class="triangle-float1" />
        <circle r="90.2863703523849" cx="1241.77" cy="223.47" stroke="#037b0b" stroke-width="2.79"
            stroke-dasharray="3, 3" class="triangle-float2"></circle>
    </g>
    <defs>
        <mask id="SvgjsMask1453">
            <rect width="1440" height="560" fill="#ffffff"></rect>
        </mask>
        <pattern x="0" y="0" width="9.08" height="9.08" patternUnits="userSpaceOnUse" id="SvgjsPattern1455">
            <path d="M4.54 1L4.54 8.08M1 4.54L8.08 4.54" stroke="#e73635" fill="none" stroke-width="2.31"></path>
        </pattern>
        <clipPath id="SvgjsClipPath1454">
            <circle r="68.1" cx="188.62" cy="245.9"></circle>
        </clipPath>
        <pattern x="0" y="0" width="6" height="6" patternUnits="userSpaceOnUse" id="SvgjsPattern1457">
            <path d="M3 1L3 5M1 3L5 3" stroke="#037b0b" fill="none" stroke-width="1"></path>
        </pattern>
        <clipPath id="SvgjsClipPath1456">
            <circle r="90" cx="404.28" cy="277.83"></circle>
        </clipPath>
        <pattern x="0" y="0" width="266.4" height="7.4" patternUnits="userSpaceOnUse" id="SvgjsPattern1459">
            <rect width="266.4" height="3.7" x="0" y="0" fill="#037b0b"></rect>
            <rect width="266.4" height="3.7" x="0" y="3.7" fill="rgba(0, 0, 0, 0)"></rect>
        </pattern>
        <clipPath id="SvgjsClipPath1458">
            <circle r="66.6" cx="956.19" cy="350.05"></circle>
        </clipPath>
        <pattern x="0" y="0" width="12.7" height="12.7" patternUnits="userSpaceOnUse" id="SvgjsPattern1461">
            <path d="M0 12.7L6.35 0L12.7 12.7" stroke="#e73635" fill="none"></path>
        </pattern>
        <clipPath id="SvgjsClipPath1460">
            <circle r="50.8" cx="1105.95" cy="475.45"></circle>
        </clipPath>
        <style>
            @keyframes float1 {
                0% {
                    transform: translate(0, 0)
                }

                50% {
                    transform: translate(-10px, 0)
                }

                100% {
                    transform: translate(0, 0)
                }
            }

            .triangle-float1 {
                animation: float1 5s infinite;
            }

            @keyframes float2 {
                0% {
                    transform: translate(0, 0)
                }

                50% {
                    transform: translate(-5px, -5px)
                }

                100% {
                    transform: translate(0, 0)
                }
            }

            .triangle-float2 {
                animation: float2 4s infinite;
            }

            @keyframes float3 {
                0% {
                    transform: translate(0, 0)
                }

                50% {
                    transform: translate(0, -10px)
                }

                100% {
                    transform: translate(0, 0)
                }
            }

            .triangle-float3 {
                animation: float3 6s infinite;
            }
        </style>
    </defs>
</svg>