<svg width="992" height="900" viewBox="0 0 992 900" fill="none" xmlns="http://www.w3.org/2000/svg">
<path d="M820.712 198.65C924.097 299.451 1004 416.156 989.515 519.643C975.03 623.13 866.271 713.292 762.887 776.266C659.502 839.239 561.491 875.025 445.606 891.467C329.605 907.909 195.848 905.115 116.644 842.141C37.3243 779.167 12.6755 656.122 3.33003 524.372C-6.01549 392.621 -0.0577357 252.274 79.1455 151.581C158.349 50.7802 310.914 -10.3665 450.63 1.45449C590.462 13.168 717.327 97.9566 820.712 198.65Z" fill="#6C63FF"/>
<g clip-path="url(#clip0_2:48)">
<path d="M873.243 328.775V421.187L871.665 418.859L758.442 252.103L757.377 250.541H820.123L821.181 252.103L871.665 326.447L873.243 328.775Z" fill="#6C63FF"/>
<path d="M426.326 626.141C436.968 657.846 433.231 687.614 433.231 687.614C433.231 687.614 412.239 665.98 401.597 634.275C390.954 602.57 394.692 572.802 394.692 572.802C394.692 572.802 415.684 594.436 426.326 626.141Z" fill="#6C63FF"/>
<path d="M440.135 626.141C429.493 657.846 433.23 687.614 433.23 687.614C433.23 687.614 454.222 665.98 464.864 634.275C475.507 602.57 471.769 572.802 471.769 572.802C471.769 572.802 450.777 594.436 440.135 626.141Z" fill="#6C63FF"/>
<path d="M444.421 626.484C445.135 659.885 432.687 687.235 432.687 687.235C432.687 687.235 419.082 660.431 418.368 627.029C417.655 593.628 430.103 566.278 430.103 566.278C430.103 566.278 443.708 593.082 444.421 626.484Z" fill="#3F3D56"/>
<path d="M432.679 689.247C449.301 689.247 462.775 688.515 462.775 687.612C462.775 686.709 449.301 685.977 432.679 685.977C416.058 685.977 402.583 686.709 402.583 687.612C402.583 688.515 416.058 689.247 432.679 689.247Z" fill="#3F3D56"/>
<path d="M145.747 688.12C155.178 688.12 162.824 680.552 162.824 671.217C162.824 661.881 155.178 654.313 145.747 654.313C136.316 654.313 128.671 661.881 128.671 671.217C128.671 680.552 136.316 688.12 145.747 688.12Z" fill="#F2F2F2"/>
<path d="M148.88 643.869C142.758 643.878 136.889 646.289 132.561 650.575C128.233 654.861 125.798 660.672 125.792 666.732C125.792 666.857 125.792 666.982 125.8 667.107C125.875 671.326 127.126 675.443 129.415 679.003C131.704 682.564 134.942 685.429 138.772 687.283C140.128 687.944 141.547 688.467 143.009 688.845C146.861 689.845 150.907 689.845 154.759 688.845C156.221 688.467 157.64 687.944 158.996 687.283C163.691 685.018 167.473 681.245 169.723 676.579C171.973 671.913 172.559 666.63 171.385 661.592C170.211 656.554 167.347 652.059 163.259 648.84C159.172 645.621 154.103 643.869 148.88 643.869ZM154.53 687.283C152.689 687.783 150.789 688.036 148.88 688.032C148.501 688.032 148.123 688.025 147.752 688.001H147.744C146.22 687.926 144.709 687.685 143.238 687.283C140.129 686.44 137.251 684.918 134.813 682.83C132.376 680.742 130.442 678.139 129.153 675.215V675.207C127.408 671.223 126.935 666.807 127.797 662.55C128.659 658.293 130.815 654.399 133.977 651.389C137.138 648.379 141.153 646.398 145.484 645.711C149.815 645.024 154.254 645.663 158.207 647.545C162.16 649.426 165.438 652.458 167.601 656.235C169.764 660.013 170.708 664.354 170.308 668.678C169.908 673.001 168.182 677.101 165.362 680.426C162.542 683.751 158.762 686.144 154.53 687.283V687.283Z" fill="#3F3D56"/>
<path d="M342.998 556.358H215.17V578.827H342.998V556.358Z" fill="#F2F2F2"/>
<path d="M741.477 346.243H613.648V368.713H741.477V346.243Z" fill="#F2F2F2"/>
<path d="M741.477 395.452H613.648V417.922H741.477V395.452Z" fill="#F2F2F2"/>
<path d="M741.477 443.099H613.648V465.568H741.477V443.099Z" fill="#F2F2F2"/>
<path d="M741.477 490.746H613.648V513.215H741.477V490.746Z" fill="#F2F2F2"/>
<path d="M741.477 539.955H613.648V562.424H741.477V539.955Z" fill="#F2F2F2"/>
<path d="M741.477 589.164H613.648V611.633H741.477V589.164Z" fill="#F2F2F2"/>
<path d="M214.38 548.365V579.608H384.819V548.365H214.38ZM383.241 578.046H215.959V549.927H383.241V578.046Z" fill="#3F3D56"/>
<path d="M498.445 380.429C502.802 380.429 506.335 376.932 506.335 372.618C506.335 368.304 502.802 364.807 498.445 364.807C494.087 364.807 490.554 368.304 490.554 372.618C490.554 376.932 494.087 380.429 498.445 380.429Z" fill="#3F3D56"/>
<path d="M498.445 428.857C502.802 428.857 506.335 425.36 506.335 421.046C506.335 416.732 502.802 413.235 498.445 413.235C494.087 413.235 490.554 416.732 490.554 421.046C490.554 425.36 494.087 428.857 498.445 428.857Z" fill="#3F3D56"/>
<path d="M498.445 477.285C502.802 477.285 506.335 473.788 506.335 469.474C506.335 465.16 502.802 461.663 498.445 461.663C494.087 461.663 490.554 465.16 490.554 469.474C490.554 473.788 494.087 477.285 498.445 477.285Z" fill="#3F3D56"/>
<path d="M498.445 525.713C502.802 525.713 506.335 522.216 506.335 517.902C506.335 513.588 502.802 510.091 498.445 510.091C494.087 510.091 490.554 513.588 490.554 517.902C490.554 522.216 494.087 525.713 498.445 525.713Z" fill="#3F3D56"/>
<path d="M498.445 574.141C502.802 574.141 506.335 570.644 506.335 566.33C506.335 562.016 502.802 558.519 498.445 558.519C494.087 558.519 490.554 562.016 490.554 566.33C490.554 570.644 494.087 574.141 498.445 574.141Z" fill="#3F3D56"/>
<path d="M498.445 622.569C502.802 622.569 506.335 619.072 506.335 614.758C506.335 610.444 502.802 606.947 498.445 606.947C494.087 606.947 490.554 610.444 490.554 614.758C490.554 619.072 494.087 622.569 498.445 622.569Z" fill="#3F3D56"/>
<path d="M785.665 371.837H569.461V373.399H785.665V371.837Z" fill="#3F3D56"/>
<path d="M785.665 420.265H569.461V421.827H785.665V420.265Z" fill="#3F3D56"/>
<path d="M785.665 468.693H569.461V470.255H785.665V468.693Z" fill="#3F3D56"/>
<path d="M785.665 517.121H569.461V518.683H785.665V517.121Z" fill="#3F3D56"/>
<path d="M785.665 565.549H569.461V567.111H785.665V565.549Z" fill="#3F3D56"/>
<path d="M785.665 613.977H569.461V615.539H785.665V613.977Z" fill="#3F3D56"/>
<path d="M824.613 659.222L803.872 642.378L820.888 621.846L841.63 638.69L824.613 659.222ZM806.093 642.161L824.394 657.024L839.409 638.907L821.107 624.044L806.093 642.161Z" fill="#3F3D56"/>
<path d="M524.103 291.992L504.582 276.139L488.567 295.463L508.088 311.316L524.103 291.992Z" fill="#6C63FF"/>
<path d="M404.546 421.046C404.581 443.078 397.503 464.545 384.345 482.315C382.846 484.346 381.276 486.33 379.627 488.244C374.969 493.678 369.76 498.625 364.082 503.006C363.514 503.444 362.938 503.881 362.354 504.311C360.224 505.889 358.033 507.386 355.781 508.802C355.095 509.232 354.408 509.654 353.714 510.06C352.144 511.005 350.545 511.906 348.916 512.762C348.119 513.184 347.315 513.598 346.51 513.996C329.971 522.165 311.547 525.868 293.099 524.731C274.651 523.594 256.833 517.657 241.446 507.521C240.625 506.99 239.82 506.443 239.023 505.881C237.524 504.834 236.048 503.741 234.612 502.616C233.287 501.585 231.993 500.515 230.722 499.421C224.034 493.664 218.108 487.092 213.086 479.863C212.108 478.449 211.161 477.012 210.246 475.551C201.734 461.877 196.541 446.437 195.075 430.441C193.608 414.446 195.908 398.332 201.793 383.365C207.678 368.398 216.989 354.986 228.994 344.181C240.999 333.377 255.371 325.475 270.981 321.096C286.591 316.717 303.014 315.981 318.961 318.944C334.907 321.908 349.942 328.491 362.884 338.176C375.827 347.861 386.325 360.385 393.554 374.764C400.782 389.143 404.545 404.985 404.546 421.046Z" fill="#3F3D56"/>
<path d="M295.647 415.92C311.438 415.92 324.239 403.249 324.239 387.618C324.239 371.987 311.438 359.315 295.647 359.315C279.857 359.315 267.056 371.987 267.056 387.618C267.056 403.249 279.857 415.92 295.647 415.92Z" fill="#A0616A"/>
<path d="M275.991 401.179C275.991 401.179 285.521 422.406 272.417 430.661C259.313 438.916 293.861 473.115 293.861 473.115L331.982 433.02C331.982 433.02 311.73 420.048 315.304 398.821L275.991 401.179Z" fill="#A0616A"/>
<path d="M364.082 503.006C363.514 503.444 362.938 503.881 362.354 504.311C360.224 505.889 358.033 507.386 355.781 508.802C355.095 509.232 354.408 509.654 353.714 510.06L353.422 508.49L356.168 507.076L364.082 503.006Z" fill="#A0616A"/>
<path d="M353.714 510.06C354.408 509.654 355.095 509.232 355.781 508.802L355.805 508.49L356.168 507.076L371.294 448.353L325.442 427.467L298.629 443.635L274.61 428.974C274.61 428.974 260.501 429.482 256.927 433.02C254.126 435.793 240.388 442.175 234.549 444.815C232.924 445.549 231.914 445.994 231.914 445.994C231.914 445.994 232.813 472.755 234.612 502.616C236.048 503.741 237.524 504.834 239.023 505.881C239.82 506.443 240.625 506.99 241.445 507.521C256.833 517.657 274.651 523.594 293.099 524.731C311.547 525.868 329.971 522.165 346.51 513.996L353.714 510.06Z" fill="#6C63FF"/>
<path d="M241.446 444.815V507.521C240.625 506.99 239.82 506.443 239.023 505.881C237.524 504.834 236.048 503.741 234.612 502.616C233.287 501.585 231.993 500.515 230.722 499.421C224.034 493.664 218.108 487.092 213.086 479.863C212.108 478.449 211.161 477.012 210.246 475.551C211.019 473.036 211.887 470.258 212.85 467.217C218.807 448.353 231.914 444.815 231.914 444.815H241.446Z" fill="#6C63FF"/>
<path d="M353.714 510.06C354.408 509.654 355.095 509.232 355.781 508.802C358.03 507.388 360.221 505.891 362.354 504.311C362.938 503.881 363.514 503.444 364.082 503.006C369.76 498.625 374.969 493.678 379.627 488.244C381.276 486.33 382.846 484.346 384.345 482.315C379.493 467.302 371.294 448.353 371.294 448.353L354.613 447.174C354.613 447.174 347.843 500.819 346.51 513.996L353.714 510.06Z" fill="#6C63FF"/>
<path d="M278.117 354.859C276.687 356.064 275.194 357.195 273.645 358.247C271.692 359.851 269.887 361.625 268.254 363.548L266.41 365.591C264.841 367.33 263.177 369.314 263.243 371.645C263.267 372.509 263.536 373.348 263.641 374.207C264.058 377.614 261.955 381.358 263.686 384.331C264.187 385.19 264.961 385.862 265.513 386.69C266.215 387.752 266.526 389.02 266.394 390.282C268.254 390.358 269.781 388.707 270.364 386.957C270.948 385.206 270.869 383.315 271.153 381.493C271.437 379.671 272.235 377.742 273.908 376.931C277.476 375.201 281.573 379.7 285.382 378.579C288.041 377.796 289.443 374.533 292.162 373.986C294.108 373.594 295.981 374.738 297.79 375.55C299.598 376.361 302.036 376.736 303.315 375.233C304.162 374.237 304.252 372.642 305.375 371.965C306.721 371.155 308.407 372.283 309.426 373.473C310.445 374.662 311.571 376.117 313.146 376.074C315.235 376.016 316.835 373.262 318.819 373.915C321.057 374.653 320.028 378.199 321.386 380.108C322.534 381.723 324.939 381.627 326.915 381.361C327.248 381.394 327.584 381.343 327.892 381.213C328.2 381.083 328.47 380.877 328.676 380.616C328.882 380.354 329.018 380.045 329.07 379.718C329.123 379.39 329.09 379.055 328.976 378.743L328.151 367.908C328.147 367.161 327.982 366.424 327.667 365.745C327.092 364.715 325.902 364.193 325.093 363.33C323.391 361.516 323.473 358.337 321.357 357.018C320.258 356.333 318.821 356.354 317.73 355.657C316.331 354.763 315.881 352.974 314.901 351.641C313.5 349.736 311.05 348.853 308.683 348.611C306.315 348.368 303.925 348.661 301.546 348.584C296.709 348.428 291.872 347.08 287.011 347.869C282.77 348.557 280.99 352.119 278.117 354.859Z" fill="#2F2E41"/>
<path d="M841.71 349.502C843.534 349.502 845.013 348.039 845.013 346.233C845.013 344.427 843.534 342.963 841.71 342.963C839.885 342.963 838.406 344.427 838.406 346.233C838.406 348.039 839.885 349.502 841.71 349.502Z" fill="#3F3D56"/>
<path d="M818.827 309.667C820.651 309.667 822.13 308.203 822.13 306.397C822.13 304.591 820.651 303.127 818.827 303.127C817.002 303.127 815.523 304.591 815.523 306.397C815.523 308.203 817.002 309.667 818.827 309.667Z" fill="#3F3D56"/>
<path d="M809.358 266.706C811.182 266.706 812.661 265.242 812.661 263.436C812.661 261.631 811.182 260.167 809.358 260.167C807.533 260.167 806.055 261.631 806.055 263.436C806.055 265.242 807.533 266.706 809.358 266.706Z" fill="#3F3D56"/>
</g>
<defs>
<clipPath id="clip0_2:48">
<rect width="837.973" height="439.054" fill="white" transform="translate(35.2703 250.541)"/>
</clipPath>
</defs>
</svg>
