<?xml version="1.0" encoding="UTF-8"?><svg xmlns="http://www.w3.org/2000/svg" xmlns:xlink="http://www.w3.org/1999/xlink" width="375pt" zoomAndPan="magnify" viewBox="0 0 375 374.999991" height="374.999991pt" preserveAspectRatio="xMidYMid meet" version="1.2"><defs><g/></defs><g xml:id="surface1" id="surface1"><path style=" stroke:none;fill-rule:nonzero;fill:rgb(0%,0%,0%);fill-opacity:1;" d="M 187.5 0 C 184.429688 0 181.363281 0.0742188 178.300781 0.226562 C 175.234375 0.375 172.175781 0.601562 169.121094 0.902344 C 166.066406 1.203125 163.023438 1.578125 159.988281 2.03125 C 156.953125 2.480469 153.929688 3.003906 150.921875 3.601562 C 147.910156 4.203125 144.917969 4.875 141.941406 5.617188 C 138.964844 6.363281 136.007812 7.183594 133.070312 8.074219 C 130.136719 8.964844 127.222656 9.925781 124.332031 10.960938 C 121.445312 11.996094 118.582031 13.097656 115.746094 14.273438 C 112.910156 15.445312 110.105469 16.691406 107.332031 18.003906 C 104.558594 19.3125 101.820312 20.691406 99.113281 22.140625 C 96.40625 23.585938 93.738281 25.097656 91.105469 26.675781 C 88.472656 28.253906 85.882812 29.894531 83.332031 31.597656 C 80.777344 33.304688 78.269531 35.070312 75.804688 36.898438 C 73.339844 38.726562 70.921875 40.613281 68.550781 42.558594 C 66.179688 44.507812 63.855469 46.511719 61.582031 48.570312 C 59.308594 50.632812 57.085938 52.746094 54.917969 54.917969 C 52.746094 57.085938 50.632812 59.308594 48.570312 61.582031 C 46.511719 63.855469 44.507812 66.179688 42.558594 68.550781 C 40.613281 70.921875 38.726562 73.339844 36.898438 75.804688 C 35.070312 78.269531 33.304688 80.777344 31.597656 83.332031 C 29.894531 85.882812 28.253906 88.472656 26.675781 91.105469 C 25.097656 93.738281 23.585938 96.40625 22.140625 99.113281 C 20.691406 101.820312 19.3125 104.558594 18.003906 107.332031 C 16.691406 110.105469 15.445312 112.910156 14.273438 115.746094 C 13.097656 118.582031 11.996094 121.445312 10.960938 124.332031 C 9.925781 127.222656 8.964844 130.136719 8.074219 133.070312 C 7.183594 136.007812 6.363281 138.964844 5.621094 141.941406 C 4.875 144.917969 4.203125 147.910156 3.601562 150.921875 C 3.003906 153.929688 2.480469 156.953125 2.03125 159.988281 C 1.578125 163.023438 1.203125 166.066406 0.902344 169.121094 C 0.601562 172.175781 0.375 175.234375 0.226562 178.300781 C 0.0742188 181.363281 0 184.429688 0 187.5 C 0 190.570312 0.0742188 193.636719 0.226562 196.699219 C 0.375 199.765625 0.601562 202.824219 0.902344 205.878906 C 1.203125 208.933594 1.578125 211.976562 2.03125 215.011719 C 2.480469 218.046875 3.003906 221.070312 3.601562 224.078125 C 4.203125 227.089844 4.875 230.082031 5.621094 233.058594 C 6.363281 236.035156 7.183594 238.992188 8.074219 241.929688 C 8.964844 244.863281 9.925781 247.777344 10.960938 250.667969 C 11.996094 253.554688 13.097656 256.417969 14.273438 259.253906 C 15.445312 262.089844 16.691406 264.890625 18.003906 267.667969 C 19.3125 270.441406 20.691406 273.179688 22.140625 275.886719 C 23.585938 278.59375 25.097656 281.261719 26.675781 283.894531 C 28.253906 286.527344 29.894531 289.117188 31.597656 291.667969 C 33.304688 294.222656 35.070312 296.730469 36.898438 299.195312 C 38.726562 301.660156 40.613281 304.078125 42.558594 306.449219 C 44.507812 308.820312 46.511719 311.144531 48.570312 313.417969 C 50.632812 315.691406 52.746094 317.914062 54.917969 320.082031 C 57.085938 322.253906 59.308594 324.367188 61.582031 326.429688 C 63.855469 328.488281 66.179688 330.492188 68.550781 332.4375 C 70.921875 334.386719 73.339844 336.273438 75.804688 338.101562 C 78.269531 339.929688 80.777344 341.695312 83.332031 343.402344 C 85.882812 345.105469 88.472656 346.746094 91.105469 348.324219 C 93.738281 349.902344 96.40625 351.414062 99.113281 352.859375 C 101.820312 354.308594 104.558594 355.6875 107.332031 356.996094 C 110.105469 358.308594 112.910156 359.554688 115.746094 360.726562 C 118.582031 361.902344 121.445312 363.003906 124.332031 364.039062 C 127.222656 365.074219 130.136719 366.035156 133.070312 366.925781 C 136.007812 367.816406 138.964844 368.636719 141.941406 369.378906 C 144.917969 370.125 147.910156 370.796875 150.921875 371.398438 C 153.929688 371.996094 156.953125 372.519531 159.988281 372.96875 C 163.023438 373.421875 166.066406 373.796875 169.121094 374.097656 C 172.175781 374.398438 175.234375 374.625 178.300781 374.773438 C 181.363281 374.925781 184.429688 375 187.5 375 C 190.570312 375 193.636719 374.925781 196.699219 374.773438 C 199.765625 374.625 202.824219 374.398438 205.878906 374.097656 C 208.933594 373.796875 211.976562 373.421875 215.011719 372.96875 C 218.046875 372.519531 221.070312 371.996094 224.078125 371.398438 C 227.089844 370.796875 230.082031 370.125 233.058594 369.378906 C 236.035156 368.636719 238.992188 367.816406 241.929688 366.925781 C 244.863281 366.035156 247.777344 365.074219 250.667969 364.039062 C 253.554688 363.003906 256.417969 361.902344 259.253906 360.726562 C 262.089844 359.554688 264.890625 358.308594 267.667969 356.996094 C 270.441406 355.6875 273.179688 354.308594 275.886719 352.859375 C 278.59375 351.414062 281.261719 349.902344 283.894531 348.324219 C 286.527344 346.746094 289.117188 345.105469 291.667969 343.402344 C 294.222656 341.695312 296.730469 339.929688 299.195312 338.101562 C 301.660156 336.273438 304.078125 334.386719 306.449219 332.4375 C 308.820312 330.492188 311.144531 328.488281 313.417969 326.429688 C 315.691406 324.367188 317.914062 322.253906 320.082031 320.082031 C 322.253906 317.914062 324.367188 315.691406 326.429688 313.417969 C 328.488281 311.144531 330.492188 308.820312 332.4375 306.449219 C 334.386719 304.078125 336.273438 301.660156 338.101562 299.195312 C 339.929688 296.730469 341.695312 294.222656 343.402344 291.667969 C 345.105469 289.117188 346.746094 286.527344 348.324219 283.894531 C 349.902344 281.261719 351.414062 278.59375 352.859375 275.886719 C 354.308594 273.179688 355.6875 270.441406 356.996094 267.667969 C 358.308594 264.890625 359.554688 262.089844 360.726562 259.253906 C 361.902344 256.417969 363.003906 253.554688 364.039062 250.667969 C 365.074219 247.777344 366.035156 244.863281 366.925781 241.929688 C 367.816406 238.992188 368.636719 236.035156 369.378906 233.058594 C 370.125 230.082031 370.796875 227.089844 371.398438 224.078125 C 371.996094 221.070312 372.519531 218.046875 372.96875 215.011719 C 373.421875 211.976562 373.796875 208.933594 374.097656 205.878906 C 374.398438 202.824219 374.625 199.765625 374.773438 196.699219 C 374.925781 193.636719 375 190.570312 375 187.5 C 375 184.429688 374.925781 181.363281 374.773438 178.300781 C 374.625 175.234375 374.398438 172.175781 374.097656 169.121094 C 373.796875 166.066406 373.421875 163.023438 372.96875 159.988281 C 372.519531 156.953125 371.996094 153.929688 371.398438 150.921875 C 370.796875 147.910156 370.125 144.917969 369.378906 141.941406 C 368.636719 138.964844 367.816406 136.007812 366.925781 133.070312 C 366.035156 130.136719 365.074219 127.222656 364.039062 124.332031 C 363.003906 121.445312 361.902344 118.582031 360.726562 115.746094 C 359.554688 112.910156 358.308594 110.105469 356.996094 107.332031 C 355.6875 104.558594 354.308594 101.820312 352.859375 99.113281 C 351.414062 96.40625 349.902344 93.738281 348.324219 91.105469 C 346.746094 88.472656 345.105469 85.882812 343.402344 83.332031 C 341.695312 80.777344 339.929688 78.269531 338.101562 75.804688 C 336.273438 73.339844 334.386719 70.921875 332.4375 68.550781 C 330.492188 66.179688 328.488281 63.855469 326.429688 61.582031 C 324.367188 59.308594 322.253906 57.085938 320.082031 54.917969 C 317.914062 52.746094 315.691406 50.632812 313.417969 48.570312 C 311.144531 46.511719 308.820312 44.507812 306.449219 42.558594 C 304.078125 40.613281 301.660156 38.726562 299.195312 36.898438 C 296.730469 35.070312 294.222656 33.304688 291.667969 31.597656 C 289.117188 29.894531 286.527344 28.253906 283.894531 26.675781 C 281.261719 25.097656 278.59375 23.585938 275.886719 22.140625 C 273.179688 20.691406 270.441406 19.3125 267.667969 18.003906 C 264.890625 16.691406 262.089844 15.445312 259.253906 14.273438 C 256.417969 13.097656 253.554688 11.996094 250.667969 10.960938 C 247.777344 9.925781 244.863281 8.964844 241.929688 8.074219 C 238.992188 7.183594 236.035156 6.363281 233.058594 5.617188 C 230.082031 4.875 227.089844 4.203125 224.078125 3.601562 C 221.070312 3.003906 218.046875 2.480469 215.011719 2.03125 C 211.976562 1.578125 208.933594 1.203125 205.878906 0.902344 C 202.824219 0.601562 199.765625 0.375 196.699219 0.226562 C 193.636719 0.0742188 190.570312 0 187.5 0 Z M 187.5 0 "/><path style=" stroke:none;fill-rule:nonzero;fill:rgb(100%,100%,100%);fill-opacity:1;" d="M 351.328125 178.566406 C 350.734375 178.566406 350.148438 178.625 349.570312 178.742188 C 348.988281 178.855469 348.425781 179.027344 347.878906 179.253906 C 347.332031 179.480469 346.816406 179.757812 346.324219 180.085938 C 345.832031 180.414062 345.375 180.785156 344.957031 181.203125 C 344.539062 181.625 344.167969 182.078125 343.839844 182.570312 C 343.511719 183.0625 343.234375 183.582031 343.007812 184.125 C 342.78125 184.671875 342.609375 185.234375 342.496094 185.816406 C 342.378906 186.394531 342.320312 186.980469 342.320312 187.574219 C 342.320312 188.164062 342.378906 188.75 342.496094 189.328125 C 342.609375 189.910156 342.78125 190.472656 343.007812 191.019531 C 343.234375 191.566406 343.511719 192.082031 343.839844 192.574219 C 344.167969 193.066406 344.539062 193.523438 344.957031 193.941406 C 345.375 194.359375 345.832031 194.730469 346.324219 195.058594 C 346.816406 195.386719 347.332031 195.664062 347.878906 195.890625 C 348.425781 196.117188 348.988281 196.289062 349.570312 196.40625 C 350.148438 196.519531 350.734375 196.578125 351.328125 196.578125 C 351.917969 196.578125 352.503906 196.519531 353.082031 196.40625 C 353.664062 196.289062 354.226562 196.117188 354.773438 195.890625 C 355.320312 195.664062 355.835938 195.386719 356.328125 195.058594 C 356.820312 194.730469 357.277344 194.359375 357.695312 193.941406 C 358.113281 193.523438 358.484375 193.066406 358.8125 192.574219 C 359.140625 192.082031 359.417969 191.566406 359.644531 191.019531 C 359.871094 190.472656 360.042969 189.910156 360.160156 189.328125 C 360.273438 188.75 360.332031 188.164062 360.332031 187.574219 C 360.332031 186.980469 360.273438 186.394531 360.160156 185.816406 C 360.042969 185.234375 359.871094 184.671875 359.644531 184.125 C 359.417969 183.582031 359.140625 183.0625 358.8125 182.570312 C 358.484375 182.078125 358.113281 181.625 357.695312 181.203125 C 357.277344 180.785156 356.820312 180.414062 356.328125 180.085938 C 355.835938 179.757812 355.320312 179.480469 354.773438 179.253906 C 354.226562 179.027344 353.664062 178.855469 353.082031 178.742188 C 352.503906 178.625 351.917969 178.566406 351.328125 178.566406 Z M 351.328125 178.566406 "/><g style="fill:rgb(100%,100%,100%);fill-opacity:1;"><g transform="translate(43.86745, 220.124986)"><path style="stroke:none;" d="M 71.890625 -88.425781 C 70.214844 -89.863281 68.175781 -90.824219 66.019531 -91.664062 C 60.628906 -93.9375 55.476562 -94.898438 49.726562 -93.460938 C 44.214844 -92.023438 38.941406 -89.144531 34.746094 -85.3125 C 31.871094 -82.675781 26.839844 -78.242188 26.242188 -74.046875 L 27.078125 -75.246094 C 25.882812 -72.96875 25.042969 -70.695312 24.5625 -68.535156 C 24.441406 -68.535156 24.804688 -70.453125 24.921875 -70.453125 C 23.003906 -70.453125 23.605469 -63.144531 23.722656 -62.066406 C 23.964844 -57.152344 25.28125 -52.121094 27.199219 -47.570312 C 29.835938 -41.339844 32.710938 -35.226562 35.105469 -28.996094 L 37.265625 -23.605469 C 37.503906 -22.765625 37.863281 -21.808594 38.222656 -20.96875 C 38.34375 -20.96875 38.820312 -20.011719 38.820312 -20.128906 C 38.941406 -19.171875 39.179688 -18.453125 39.421875 -17.613281 C 39.179688 -18.210938 38.703125 -19.050781 38.703125 -19.53125 C 38.460938 -18.691406 39.179688 -17.613281 39.421875 -17.015625 C 39.660156 -15.816406 39.78125 -14.738281 39.78125 -13.539062 C 39.539062 -10.425781 38.460938 -7.429688 36.90625 -4.792969 C 33.789062 0.359375 28.636719 4.554688 22.886719 6.351562 C 18.691406 7.546875 13.539062 7.546875 11.621094 2.996094 C 9.945312 -0.71875 10.664062 -5.273438 11.503906 -9.105469 C 11.980469 -11.261719 12.582031 -13.417969 13.539062 -15.457031 C 14.257812 -17.375 18.09375 -22.527344 17.015625 -24.441406 C 14.378906 -29.117188 5.511719 -17.375 4.3125 -15.457031 C -0.71875 -7.308594 -3.117188 5.992188 7.1875 11.261719 C 14.378906 14.859375 23.84375 14.257812 31.035156 11.382812 C 33.550781 10.425781 44.453125 5.871094 44.332031 2.277344 L 41.9375 3.953125 C 50.203125 -3.234375 53.558594 -11.980469 50.324219 -22.765625 C 48.765625 -27.796875 45.890625 -31.871094 43.136719 -36.304688 C 41.097656 -39.898438 40.5 -43.375 38.820312 -47.089844 C 41.097656 -42.535156 43.855469 -38.101562 46.25 -33.550781 C 41.339844 -44.8125 31.871094 -58.234375 38.222656 -70.8125 C 41.097656 -76.445312 46.25 -81.117188 51.882812 -83.875 C 55.117188 -85.433594 58.953125 -86.75 62.664062 -86.628906 C 67.097656 -86.269531 66.140625 -83.394531 66.140625 -80.398438 C 66.378906 -82.195312 67.457031 -84.113281 65.660156 -85.910156 C 63.984375 -87.347656 61.226562 -86.871094 59.191406 -86.511719 C 54.519531 -85.671875 50.203125 -83.753906 46.488281 -81 C 49.125 -83.035156 52.121094 -84.710938 55.238281 -85.792969 C 57.992188 -86.75 62.066406 -87.949219 64.824219 -86.75 C 71.652344 -83.632812 62.90625 -70.574219 59.671875 -66.140625 C 60.269531 -67.21875 61.226562 -69.257812 61.46875 -69.496094 C 59.789062 -69.617188 56.433594 -61.226562 55.597656 -60.75 C 52.722656 -57.753906 56.195312 -57.394531 58.59375 -58.832031 C 61.226562 -60.390625 63.386719 -62.90625 65.421875 -64.941406 C 68.175781 -67.816406 70.695312 -70.8125 72.851562 -74.046875 C 74.289062 -76.207031 76.925781 -79.679688 75.488281 -82.316406 C 74.527344 -84.59375 73.929688 -86.75 71.890625 -88.425781 Z M 4.914062 8.628906 C -1.316406 0.839844 1.558594 -9.464844 7.1875 -17.132812 C 2.277344 -10.066406 0.238281 2.757812 4.914062 8.628906 Z M 35.828125 -61.109375 C 35.945312 -60.507812 35.828125 -59.910156 35.828125 -59.429688 Z M 35.828125 -61.109375 "/></g></g><g style="fill:rgb(100%,100%,100%);fill-opacity:1;"><g transform="translate(103.653876, 220.124986)"><path style="stroke:none;" d="M 60.988281 -28.875 C 60.867188 -31.511719 58.710938 -29.234375 57.992188 -28.277344 C 56.433594 -26 54.996094 -23.605469 53.558594 -21.328125 C 50.324219 -16.414062 47.089844 -11.503906 43.375 -6.828125 C 31.035156 8.386719 39.660156 -18.691406 38.703125 -18.453125 C 38.222656 -18.332031 37.863281 -16.535156 37.742188 -16.175781 C 38.703125 -20.488281 40.5 -25.640625 42.777344 -29.835938 C 44.09375 -32.472656 45.652344 -34.628906 43.253906 -37.503906 C 38.820312 -42.894531 33.667969 -37.984375 30.792969 -34.269531 C 29.59375 -38.820312 27.199219 -45.53125 21.328125 -45.53125 C 18.691406 -45.53125 17.132812 -44.214844 15.335938 -42.65625 C 14.257812 -41.9375 13.417969 -41.816406 12.460938 -40.976562 C 10.902344 -39.898438 9.824219 -38.222656 8.746094 -36.785156 C 4.671875 -30.792969 1.796875 -23.246094 0.480469 -16.296875 C -0.121094 -12.941406 -0.359375 -9.226562 0.597656 -5.871094 C 1.199219 -3.953125 3.355469 0.359375 6.109375 0 C 6.230469 0 5.992188 -0.121094 5.632812 -0.359375 C 7.308594 0.121094 9.226562 -0.121094 10.664062 -1.078125 C 10.785156 -0.839844 9.347656 -0.238281 9.347656 -0.238281 C 10.664062 1.796875 20.488281 -10.066406 21.207031 -11.144531 C 22.765625 -13.300781 23.84375 -15.578125 25.28125 -17.851562 C 26.359375 -19.53125 28.039062 -21.6875 29.234375 -23.484375 C 29.117188 -22.644531 29.117188 -21.566406 29.117188 -21.566406 C 26.960938 -14.738281 24.921875 -7.308594 27.796875 -0.238281 C 29.117188 3.355469 32.351562 6.710938 36.425781 5.992188 C 40.019531 5.390625 43.015625 1.917969 45.171875 -0.839844 C 47.808594 -3.953125 50.085938 -7.429688 52.363281 -11.023438 C 54.277344 -14.257812 56.074219 -17.492188 57.632812 -21.089844 C 58.59375 -23.363281 61.226562 -26.121094 60.988281 -28.875 Z M 26.601562 -28.039062 C 26 -27.199219 25.402344 -26.359375 24.921875 -25.523438 L 21.808594 -21.089844 C 19.769531 -18.09375 17.613281 -15.21875 15.335938 -12.460938 C 14.738281 -11.621094 11.863281 -7.90625 10.664062 -8.269531 C 8.867188 -8.867188 10.785156 -15.097656 11.023438 -16.054688 C 11.382812 -17.734375 17.734375 -36.1875 19.410156 -36.546875 C 17.253906 -36.664062 10.304688 -14.976562 9.945312 -13.179688 C 10.902344 -19.050781 13.058594 -24.804688 15.457031 -30.195312 C 16.773438 -32.949219 19.769531 -40.257812 23.722656 -40.257812 C 25.882812 -40.257812 26.359375 -35.828125 26.71875 -34.386719 C 26.601562 -34.628906 25.523438 -38.101562 25.402344 -37.984375 C 24.804688 -37.503906 27.199219 -30.914062 27.199219 -29.953125 C 27.199219 -28.996094 27.199219 -28.996094 26.601562 -28.039062 Z M 29.355469 -22.167969 C 29.355469 -22.167969 29.714844 -23.84375 29.835938 -24.203125 L 30.433594 -25.042969 Z M 27.558594 -29.59375 L 27.558594 -30.792969 C 27.917969 -30.316406 27.917969 -29.953125 27.558594 -29.59375 Z M 27.558594 -29.59375 "/></g></g><g style="fill:rgb(100%,100%,100%);fill-opacity:1;"><g transform="translate(155.892124, 220.124986)"><path style="stroke:none;" d="M 31.394531 -29.476562 C 31.152344 -31.035156 29.476562 -30.554688 28.636719 -29.953125 C 27.558594 -29.234375 21.566406 -21.328125 22.046875 -20.730469 C 22.40625 -20.730469 22.644531 -20.730469 22.886719 -20.96875 C 21.207031 -18.929688 18.09375 -16.65625 15.816406 -14.859375 C 14.5 -13.78125 11.261719 -10.785156 9.347656 -11.742188 C 5.273438 -13.78125 13.539062 -28.15625 13.179688 -28.277344 C 12.820312 -28.398438 9.824219 -21.6875 9.226562 -20.128906 C 10.664062 -24.324219 12.582031 -28.515625 14.859375 -32.230469 C 14.738281 -31.871094 14.378906 -31.273438 14.617188 -31.273438 C 14.859375 -31.152344 16.65625 -33.667969 16.296875 -33.910156 C 16.175781 -33.910156 15.9375 -33.910156 15.816406 -33.789062 C 16.175781 -34.148438 16.773438 -34.269531 16.773438 -34.988281 C 16.773438 -36.1875 14.019531 -37.382812 13.058594 -37.742188 C 10.785156 -38.703125 8.507812 -38.941406 6.710938 -37.742188 C 4.3125 -36.304688 3.835938 -33.429688 2.875 -30.914062 C 2.636719 -30.195312 0.359375 -21.6875 0.839844 -21.566406 C 1.078125 -21.6875 1.078125 -21.808594 1.199219 -22.046875 L 0.839844 -19.890625 C 0.71875 -19.890625 0.957031 -20.488281 0.71875 -20.488281 C -0.238281 -20.488281 0 -16.175781 0.121094 -15.578125 C 0.597656 -13.417969 2.277344 -11.863281 3.59375 -10.066406 C 4.3125 -8.988281 5.03125 -7.90625 6.109375 -7.1875 C 7.546875 -6.109375 6.589844 -7.1875 7.546875 -6.710938 L 7.308594 -6.710938 C 7.1875 -5.992188 11.742188 -4.792969 12.699219 -4.914062 C 16.894531 -5.871094 19.890625 -11.023438 22.285156 -14.257812 C 24.5625 -17.132812 26.480469 -20.011719 28.515625 -23.003906 C 29.714844 -24.5625 31.871094 -27.199219 31.394531 -29.476562 Z M 10.425781 -44.574219 C 10.664062 -44.214844 10.304688 -43.734375 11.144531 -43.253906 C 11.980469 -42.894531 12.460938 -43.375 13.179688 -43.613281 C 14.617188 -44.214844 15.695312 -45.769531 16.773438 -46.730469 C 17.132812 -46.96875 16.414062 -46.851562 16.414062 -46.851562 C 17.972656 -48.289062 16.65625 -46.609375 18.09375 -47.449219 C 19.53125 -48.40625 19.769531 -49.964844 20.96875 -51.28125 C 19.53125 -50.683594 18.453125 -49.84375 17.492188 -48.648438 C 16.296875 -47.089844 15.457031 -46.371094 14.140625 -45.53125 C 15.578125 -46.609375 16.296875 -47.6875 17.492188 -49.605469 C 17.851562 -49.964844 18.210938 -50.203125 18.691406 -50.445312 C 18.332031 -50.804688 18.332031 -51.164062 18.8125 -51.523438 C 19.171875 -52.121094 19.890625 -52.363281 20.25 -52.960938 C 20.847656 -53.800781 20.730469 -54.878906 21.449219 -55.714844 C 22.046875 -56.195312 22.886719 -56.554688 23.363281 -57.035156 C 24.441406 -57.992188 25.640625 -59.789062 25.164062 -61.347656 C 24.683594 -62.785156 23.484375 -64.582031 22.167969 -65.421875 C 20.609375 -66.261719 18.453125 -66.621094 16.773438 -65.902344 C 16.414062 -65.78125 14.976562 -65.421875 15.457031 -64.941406 C 15.578125 -64.703125 15.695312 -64.703125 15.9375 -64.703125 C 14.859375 -63.863281 13.058594 -62.425781 15.578125 -61.46875 C 15.335938 -61.226562 15.578125 -60.148438 15.578125 -60.03125 C 15.457031 -59.191406 13.78125 -54.757812 12.699219 -52.601562 L 14.140625 -54.757812 C 13.300781 -52.960938 12.339844 -51.28125 11.261719 -49.84375 C 11.980469 -51.402344 10.542969 -49.605469 10.542969 -49.246094 C 9.226562 -49.84375 9.585938 -46.128906 9.707031 -45.769531 C 9.707031 -45.652344 10.425781 -44.574219 10.425781 -44.574219 Z M 8.148438 -16.054688 L 8.148438 -15.9375 L 7.90625 -15.21875 L 8.148438 -16.175781 C 8.269531 -16.296875 8.269531 -16.296875 8.148438 -16.054688 Z M 12.101562 -51.640625 C 12.101562 -51.640625 12.339844 -51.882812 12.582031 -52.363281 Z M 10.902344 -49.367188 C 10.902344 -49.246094 10.902344 -49.246094 10.785156 -49.125 C 10.785156 -49.125 10.785156 -49.246094 10.664062 -49.246094 C 10.785156 -49.246094 10.785156 -49.246094 10.902344 -49.367188 Z M 10.902344 -49.367188 "/></g></g><g style="fill:rgb(100%,100%,100%);fill-opacity:1;"><g transform="translate(178.536684, 220.124986)"><path style="stroke:none;" d="M 63.386719 -28.996094 C 63.265625 -31.152344 61.707031 -30.554688 60.628906 -29.59375 C 60.03125 -28.996094 52.242188 -20.371094 52.601562 -19.769531 C 52.839844 -19.769531 53.199219 -19.769531 53.441406 -20.011719 C 51.164062 -17.734375 47.570312 -15.578125 44.8125 -13.539062 C 42.058594 -11.382812 38.941406 -7.429688 35.105469 -7.1875 C 34.746094 -7.1875 34.386719 -7.070312 33.910156 -7.1875 C 32.230469 -7.429688 28.15625 -14.738281 27.796875 -16.296875 C 27.917969 -15.097656 30.675781 -9.707031 31.394531 -8.507812 C 28.636719 -11.621094 27.199219 -16.296875 26.480469 -20.488281 C 26.601562 -20.128906 26.839844 -19.769531 26.960938 -19.769531 C 27.320312 -19.890625 26.839844 -22.285156 26.839844 -22.40625 C 27.078125 -22.644531 28.875 -23.125 29.355469 -23.363281 C 31.992188 -24.441406 34.507812 -25.761719 37.023438 -27.199219 C 41.699219 -29.714844 46.371094 -32.710938 50.203125 -36.425781 C 54.398438 -40.617188 57.992188 -46.488281 52.480469 -51.28125 C 46.96875 -55.957031 39.179688 -49.726562 34.988281 -46.011719 C 30.914062 -42.417969 27.4375 -38.222656 24.203125 -33.910156 C 22.765625 -31.753906 21.207031 -29.714844 19.890625 -27.558594 C 19.050781 -26.359375 16.414062 -23.363281 16.65625 -21.925781 C 16.65625 -21.925781 18.929688 -24.683594 19.050781 -24.804688 C 18.210938 -23.605469 17.375 -22.285156 16.65625 -20.96875 C 16.65625 -21.089844 14.738281 -18.453125 14.5 -17.972656 L 11.261719 -12.339844 C 12.582031 -17.972656 14.140625 -23.605469 15.816406 -29.234375 C 16.65625 -32.113281 17.375 -33.789062 19.292969 -36.066406 C 20.96875 -38.101562 22.644531 -40.140625 24.203125 -42.175781 C 27.796875 -46.730469 31.035156 -51.640625 34.269531 -56.554688 C 36.664062 -60.148438 38.460938 -64.824219 41.21875 -67.816406 C 44.574219 -71.773438 47.449219 -77.042969 49.125 -82.078125 C 50.085938 -84.832031 49.726562 -87.109375 48.40625 -89.863281 C 45.890625 -94.777344 40.859375 -99.210938 35.347656 -96.695312 C 30.792969 -94.65625 27.558594 -89.984375 25.164062 -85.792969 C 23.605469 -83.15625 22.167969 -80.398438 20.96875 -77.523438 L 18.570312 -72.492188 C 18.210938 -71.53125 17.851562 -69.976562 17.492188 -69.136719 C 17.492188 -69.015625 17.375 -68.898438 17.375 -68.898438 C 16.414062 -66.5 15.695312 -64.222656 14.859375 -61.828125 C 14.738281 -61.945312 15.457031 -64.222656 15.457031 -64.222656 C 14.859375 -64.222656 12.941406 -58.472656 12.699219 -57.753906 C 11.621094 -54.878906 10.664062 -52 9.707031 -49.007812 C 7.90625 -43.613281 6.46875 -38.101562 5.390625 -32.472656 C 4.433594 -26.359375 2.636719 -20.371094 1.316406 -14.378906 C 0.839844 -11.742188 0 -9.105469 0 -6.46875 C 0 -5.03125 0.238281 -3.476562 1.078125 -2.277344 C 1.316406 -2.035156 3.355469 -0.359375 3.355469 -0.480469 C 3.355469 -0.480469 3.234375 -0.597656 3.234375 -0.71875 C 3.835938 -0.238281 5.03125 0.121094 5.992188 0.238281 C 5.152344 0.238281 4.074219 0.121094 3.835938 -0.238281 C 4.671875 0.957031 7.90625 0.121094 8.148438 0.121094 C 10.902344 -0.480469 11.503906 -4.3125 12.941406 -6.46875 L 18.691406 -16.054688 C 19.171875 -13.539062 20.128906 -10.664062 21.328125 -8.507812 C 21.566406 -7.90625 25.042969 -3.117188 25.28125 -3.355469 C 25.28125 -3.476562 25.164062 -3.714844 25.164062 -3.835938 C 25.640625 -3.234375 26.121094 -2.757812 26.71875 -2.394531 C 26.601562 -2.277344 26.242188 -2.757812 26.121094 -2.515625 C 25.402344 -1.4375 30.554688 0.359375 31.394531 0.359375 C 33.070312 0.238281 34.507812 -0.957031 36.066406 -1.558594 C 37.382812 -2.15625 38.703125 -2.636719 39.898438 -3.59375 C 41.339844 -4.792969 39.78125 -4.074219 40.738281 -4.792969 L 40.738281 -4.554688 C 41.097656 -5.03125 46.488281 -8.027344 46.730469 -8.269531 C 49.484375 -10.304688 51.640625 -13.058594 54.039062 -15.578125 C 56.074219 -17.613281 57.753906 -19.890625 59.429688 -22.046875 C 61.226562 -24.082031 63.625 -25.761719 63.386719 -28.875 Z M 37.382812 -87.46875 C 38.582031 -89.144531 42.058594 -93.339844 44.214844 -90.464844 C 46.371094 -87.589844 42.65625 -80.757812 41.339844 -78.003906 C 39.539062 -73.929688 37.265625 -69.976562 34.988281 -66.140625 L 31.753906 -60.867188 C 30.554688 -59.070312 28.996094 -57.394531 28.277344 -55.597656 C 28.757812 -56.433594 29.714844 -57.511719 30.316406 -58.234375 L 32.949219 -62.425781 C 34.988281 -65.660156 36.90625 -68.898438 38.703125 -72.25 C 39.660156 -73.808594 40.617188 -75.605469 41.699219 -77.523438 C 40.5 -75.007812 39.179688 -72.609375 37.863281 -70.214844 C 32.589844 -60.628906 26.480469 -51.640625 19.890625 -43.015625 C 22.046875 -50.804688 24.324219 -58.59375 27.199219 -66.261719 C 29.953125 -73.449219 32.710938 -81.238281 37.382812 -87.46875 Z M 25.402344 -25.761719 C 29.355469 -31.273438 33.429688 -36.664062 38.101562 -41.578125 C 39.179688 -42.777344 45.171875 -49.605469 47.210938 -48.167969 C 49.125 -46.730469 42.296875 -38.941406 41.339844 -37.863281 C 36.90625 -33.070312 31.511719 -28.15625 25.402344 -25.761719 Z M 26.121094 -68.777344 C 27.558594 -72.25 28.875 -75.847656 30.554688 -79.441406 C 30.675781 -79.921875 31.871094 -81.476562 32.472656 -82.554688 C 31.871094 -81 30.074219 -78.363281 29.835938 -77.644531 C 27.917969 -72.730469 26.480469 -67.699219 24.804688 -62.664062 C 22.886719 -56.675781 20.96875 -50.921875 19.410156 -44.933594 L 19.652344 -45.890625 L 19.53125 -45.769531 C 19.53125 -45.890625 19.652344 -45.890625 19.652344 -46.011719 C 21.207031 -53.558594 23.125 -61.585938 26.121094 -68.777344 Z M 17.492188 -69.136719 L 17.375 -69.015625 C 17.492188 -69.015625 17.492188 -69.136719 17.492188 -69.136719 Z M 17.375 -68.898438 L 17.375 -69.015625 Z M 17.375 -68.898438 "/></g></g><g style="fill:rgb(100%,100%,100%);fill-opacity:1;"><g transform="translate(233.171175, 220.124986)"><path style="stroke:none;" d="M 60.988281 -28.875 C 60.867188 -31.511719 58.710938 -29.234375 57.992188 -28.277344 C 56.433594 -26 54.996094 -23.605469 53.558594 -21.328125 C 50.324219 -16.414062 47.089844 -11.503906 43.375 -6.828125 C 31.035156 8.386719 39.660156 -18.691406 38.703125 -18.453125 C 38.222656 -18.332031 37.863281 -16.535156 37.742188 -16.175781 C 38.703125 -20.488281 40.5 -25.640625 42.777344 -29.835938 C 44.09375 -32.472656 45.652344 -34.628906 43.253906 -37.503906 C 38.820312 -42.894531 33.667969 -37.984375 30.792969 -34.269531 C 29.59375 -38.820312 27.199219 -45.53125 21.328125 -45.53125 C 18.691406 -45.53125 17.132812 -44.214844 15.335938 -42.65625 C 14.257812 -41.9375 13.417969 -41.816406 12.460938 -40.976562 C 10.902344 -39.898438 9.824219 -38.222656 8.746094 -36.785156 C 4.671875 -30.792969 1.796875 -23.246094 0.480469 -16.296875 C -0.121094 -12.941406 -0.359375 -9.226562 0.597656 -5.871094 C 1.199219 -3.953125 3.355469 0.359375 6.109375 0 C 6.230469 0 5.992188 -0.121094 5.632812 -0.359375 C 7.308594 0.121094 9.226562 -0.121094 10.664062 -1.078125 C 10.785156 -0.839844 9.347656 -0.238281 9.347656 -0.238281 C 10.664062 1.796875 20.488281 -10.066406 21.207031 -11.144531 C 22.765625 -13.300781 23.84375 -15.578125 25.28125 -17.851562 C 26.359375 -19.53125 28.039062 -21.6875 29.234375 -23.484375 C 29.117188 -22.644531 29.117188 -21.566406 29.117188 -21.566406 C 26.960938 -14.738281 24.921875 -7.308594 27.796875 -0.238281 C 29.117188 3.355469 32.351562 6.710938 36.425781 5.992188 C 40.019531 5.390625 43.015625 1.917969 45.171875 -0.839844 C 47.808594 -3.953125 50.085938 -7.429688 52.363281 -11.023438 C 54.277344 -14.257812 56.074219 -17.492188 57.632812 -21.089844 C 58.59375 -23.363281 61.226562 -26.121094 60.988281 -28.875 Z M 26.601562 -28.039062 C 26 -27.199219 25.402344 -26.359375 24.921875 -25.523438 L 21.808594 -21.089844 C 19.769531 -18.09375 17.613281 -15.21875 15.335938 -12.460938 C 14.738281 -11.621094 11.863281 -7.90625 10.664062 -8.269531 C 8.867188 -8.867188 10.785156 -15.097656 11.023438 -16.054688 C 11.382812 -17.734375 17.734375 -36.1875 19.410156 -36.546875 C 17.253906 -36.664062 10.304688 -14.976562 9.945312 -13.179688 C 10.902344 -19.050781 13.058594 -24.804688 15.457031 -30.195312 C 16.773438 -32.949219 19.769531 -40.257812 23.722656 -40.257812 C 25.882812 -40.257812 26.359375 -35.828125 26.71875 -34.386719 C 26.601562 -34.628906 25.523438 -38.101562 25.402344 -37.984375 C 24.804688 -37.503906 27.199219 -30.914062 27.199219 -29.953125 C 27.199219 -28.996094 27.199219 -28.996094 26.601562 -28.039062 Z M 29.355469 -22.167969 C 29.355469 -22.167969 29.714844 -23.84375 29.835938 -24.203125 L 30.433594 -25.042969 Z M 27.558594 -29.59375 L 27.558594 -30.792969 C 27.917969 -30.316406 27.917969 -29.953125 27.558594 -29.59375 Z M 27.558594 -29.59375 "/></g></g><g style="fill:rgb(100%,100%,100%);fill-opacity:1;"><g transform="translate(285.409411, 220.124986)"><path style="stroke:none;" d="M 48.648438 -62.304688 C 48.527344 -63.984375 46.730469 -62.664062 45.769531 -62.664062 C 40.976562 -62.425781 36.1875 -62.425781 31.511719 -62.1875 C 31.511719 -62.304688 31.753906 -62.785156 32.113281 -63.503906 C 31.632812 -62.664062 31.273438 -62.1875 30.914062 -62.1875 C 34.507812 -69.496094 38.34375 -76.804688 42.894531 -83.515625 C 42.777344 -83.273438 40.976562 -80.28125 41.097656 -80.28125 C 41.457031 -80.160156 45.890625 -86.269531 46.011719 -87.109375 C 46.011719 -87.589844 44.933594 -86.390625 44.933594 -86.511719 C 45.652344 -87.230469 46.851562 -87.828125 47.210938 -88.785156 C 48.046875 -91.183594 45.53125 -92.261719 43.734375 -92.621094 C 40.019531 -93.339844 35.828125 -92.859375 33.429688 -89.746094 C 31.152344 -86.988281 29.476562 -83.753906 28.039062 -80.519531 C 27.320312 -79.082031 26.359375 -78.722656 25.402344 -77.402344 C 23.964844 -75.367188 23.003906 -72.96875 21.925781 -70.695312 C 20.96875 -68.65625 20.011719 -66.5 19.171875 -64.34375 C 18.691406 -63.265625 18.691406 -62.425781 17.613281 -62.066406 C 16.535156 -61.585938 14.5 -61.945312 13.300781 -61.828125 C 8.628906 -61.226562 4.074219 -61.46875 -0.597656 -60.988281 C -2.996094 -60.867188 -5.390625 -60.867188 -7.667969 -60.03125 C -8.148438 -59.910156 -10.785156 -59.3125 -11.023438 -58.953125 C -11.742188 -57.632812 -8.867188 -57.511719 -8.269531 -57.394531 C -3.714844 -56.792969 2.035156 -56.316406 6.589844 -57.152344 C 9.707031 -57.753906 12.941406 -57.511719 16.296875 -57.753906 C 14.617188 -54.160156 13.300781 -50.324219 11.980469 -46.488281 L 10.542969 -42.296875 C 10.066406 -40.976562 8.507812 -38.460938 8.507812 -37.023438 C 8.507812 -36.785156 8.867188 -37.382812 9.105469 -37.984375 C 8.507812 -36.1875 7.789062 -34.386719 7.308594 -32.589844 C 7.308594 -32.710938 7.667969 -34.148438 7.546875 -34.148438 C 6.949219 -34.148438 4.554688 -26.839844 4.3125 -26.242188 C 3.117188 -22.644531 1.796875 -19.050781 1.199219 -15.21875 C 0.480469 -11.382812 -0.480469 -7.667969 -1.316406 -3.953125 C -1.796875 -2.035156 -2.277344 -0.238281 -2.515625 1.675781 C -2.757812 2.636719 -2.996094 3.714844 -2.996094 4.671875 C -2.996094 4.914062 -2.996094 6.46875 -2.757812 5.992188 L -2.996094 8.386719 L -2.996094 6.589844 C -3.714844 7.429688 -2.996094 11.261719 -2.875 11.980469 C -2.394531 14.378906 -1.199219 16.535156 0.957031 17.972656 C 2.875 19.410156 5.871094 20.730469 8.148438 19.652344 C 11.144531 18.210938 13.660156 14.859375 15.578125 12.460938 C 19.769531 7.546875 23.605469 2.394531 27.4375 -2.757812 C 30.914062 -7.546875 34.507812 -12.222656 37.503906 -17.253906 C 39.179688 -20.128906 42.417969 -22.765625 43.496094 -26 C 44.09375 -27.558594 43.734375 -29.476562 41.816406 -29.117188 C 40.257812 -28.757812 38.101562 -24.5625 37.144531 -23.363281 C 32.832031 -17.972656 28.757812 -12.460938 24.441406 -7.070312 L 17.492188 1.4375 C 16.414062 2.636719 15.335938 3.953125 14.140625 5.152344 C 13.660156 5.75 10.664062 8.148438 10.785156 8.867188 C 10.785156 9.105469 12.101562 8.027344 12.582031 7.667969 C 11.980469 8.386719 11.261719 8.988281 10.664062 9.585938 C 10.785156 9.464844 8.269531 10.902344 7.90625 10.664062 C 5.632812 9.707031 7.667969 2.757812 8.027344 1.078125 C 10.183594 -8.628906 13.417969 -18.453125 16.65625 -27.796875 C 18.570312 -32.949219 20.488281 -37.863281 22.644531 -42.894531 C 23.722656 -45.410156 24.804688 -48.046875 26 -50.5625 L 27.679688 -55.117188 L 26.359375 -52.480469 C 27.199219 -54.636719 28.398438 -57.875 29.117188 -57.992188 L 28.757812 -57.273438 C 28.996094 -57.632812 29.234375 -57.875 29.476562 -57.992188 C 30.792969 -58.832031 34.148438 -57.992188 35.707031 -57.992188 C 36.785156 -57.992188 38.101562 -57.875 39.179688 -58.234375 C 39.898438 -58.472656 39.660156 -58.832031 40.5 -59.070312 C 41.9375 -59.3125 43.734375 -58.351562 45.292969 -58.832031 C 46.730469 -59.191406 48.765625 -60.507812 48.648438 -62.1875 Z M 25.882812 -55.355469 C 20.488281 -43.972656 16.414062 -31.753906 12.101562 -19.890625 C 10.066406 -14.5 8.148438 -8.867188 6.828125 -3.234375 L 6.230469 -0.957031 C 7.070312 -5.273438 8.027344 -9.464844 9.226562 -13.660156 C 11.863281 -22.886719 15.21875 -31.992188 19.171875 -40.738281 C 25.882812 -55.714844 31.871094 -71.773438 41.457031 -85.3125 C 34.988281 -76.085938 30.675781 -65.542969 25.882812 -55.355469 Z M 33.789062 -67.21875 L 36.664062 -72.730469 C 36.066406 -72.609375 34.988281 -69.976562 33.789062 -67.21875 Z M 21.449219 -41.097656 C 20.609375 -38.820312 19.652344 -36.664062 18.691406 -34.507812 C 19.652344 -36.785156 20.488281 -39.179688 21.566406 -41.578125 C 21.449219 -41.339844 21.449219 -41.21875 21.449219 -41.097656 Z M 32.230469 -63.746094 L 33.429688 -66.378906 C 33.070312 -65.421875 32.589844 -64.464844 32.230469 -63.746094 Z M 6.109375 11.742188 C 5.992188 11.742188 5.871094 11.621094 5.75 11.503906 Z M 6.109375 11.742188 "/></g></g><path style=" stroke:none;fill-rule:nonzero;fill:rgb(100%,100%,100%);fill-opacity:1;" d="M 23.820312 178.566406 C 23.226562 178.566406 22.640625 178.625 22.0625 178.742188 C 21.480469 178.855469 20.917969 179.027344 20.371094 179.253906 C 19.828125 179.480469 19.308594 179.757812 18.816406 180.085938 C 18.324219 180.414062 17.871094 180.785156 17.453125 181.203125 C 17.035156 181.625 16.660156 182.078125 16.332031 182.570312 C 16.003906 183.0625 15.726562 183.582031 15.5 184.125 C 15.273438 184.671875 15.101562 185.234375 14.988281 185.816406 C 14.871094 186.394531 14.8125 186.980469 14.8125 187.574219 C 14.8125 188.164062 14.871094 188.75 14.988281 189.328125 C 15.101562 189.910156 15.273438 190.472656 15.5 191.019531 C 15.726562 191.566406 16.003906 192.082031 16.332031 192.574219 C 16.660156 193.066406 17.035156 193.523438 17.453125 193.941406 C 17.871094 194.359375 18.324219 194.730469 18.816406 195.058594 C 19.308594 195.386719 19.828125 195.664062 20.371094 195.890625 C 20.917969 196.117188 21.480469 196.289062 22.0625 196.40625 C 22.640625 196.519531 23.226562 196.578125 23.820312 196.578125 C 24.410156 196.578125 24.996094 196.519531 25.574219 196.40625 C 26.15625 196.289062 26.71875 196.117188 27.265625 195.890625 C 27.8125 195.664062 28.332031 195.386719 28.820312 195.058594 C 29.3125 194.730469 29.769531 194.359375 30.1875 193.941406 C 30.605469 193.523438 30.976562 193.066406 31.304688 192.574219 C 31.636719 192.082031 31.914062 191.566406 32.136719 191.019531 C 32.363281 190.472656 32.535156 189.910156 32.652344 189.328125 C 32.765625 188.75 32.824219 188.164062 32.824219 187.574219 C 32.824219 186.980469 32.765625 186.394531 32.652344 185.816406 C 32.535156 185.234375 32.363281 184.671875 32.136719 184.125 C 31.914062 183.582031 31.636719 183.0625 31.304688 182.570312 C 30.976562 182.078125 30.605469 181.625 30.1875 181.203125 C 29.769531 180.785156 29.3125 180.414062 28.820312 180.085938 C 28.332031 179.757812 27.8125 179.480469 27.265625 179.253906 C 26.71875 179.027344 26.15625 178.855469 25.574219 178.742188 C 24.996094 178.625 24.410156 178.566406 23.820312 178.566406 Z M 23.820312 178.566406 "/></g></svg>